<?xml version="1.0" standalone="no"?>
<!DOCTYPE svg PUBLIC "-//W3C//DTD SVG 1.1//EN" "http://www.w3.org/Graphics/SVG/1.1/DTD/svg11.dtd" >
<svg xmlns="http://www.w3.org/2000/svg">
<metadata>Generated by IcoMoon</metadata>
<defs>
<font id="icomoon" horiz-adv-x="1024">
<font-face units-per-em="1024" ascent="960" descent="-64" />
<missing-glyph horiz-adv-x="1024" />
<glyph unicode="&#x20;" horiz-adv-x="512" d="" />
<glyph unicode="&#xe900;" glyph-name="copy-writing-1" d="M239.814 17.306c3.9-12.805 11.803-24.021 22.548-32.001s23.766-12.306 37.151-12.338c6.064-0.005 12.099 0.858 17.92 2.56l405.709 122.163 73.011 9.523c8.119 1.049 15.952 3.686 23.049 7.766 7.097 4.078 13.321 9.516 18.314 16.002 4.995 6.488 8.658 13.895 10.786 21.8s2.676 16.152 1.611 24.269l-38.502 293.888 121.242 185.958 29.901 45.158 14.336 22.426c10.063 15.399 13.594 34.164 9.821 52.167s-14.543 33.771-29.942 43.833c-15.399 10.062-34.165 13.595-52.169 9.822-18.002-3.774-33.769-14.544-43.832-29.943l-14.746-22.63-62.566-95.642-24.678 187.904c-1.060 8.11-3.707 15.931-7.792 23.017s-9.525 13.298-16.011 18.281c-6.485 4.983-13.888 8.639-21.786 10.76-7.901 2.121-16.138 2.664-24.248 1.6l-430.899-56.627c-15.676-2.024-29.987-9.954-40.016-22.171s-15.017-27.8-13.948-43.57l-123.904-37.274c-15.802-4.759-29.068-15.597-36.883-30.132s-9.539-31.579-4.794-47.385l201.318-669.184zM863.328 748.134l32.358-21.094 32.256-21.094-12.698-19.456-64.614 42.189 12.698 19.456zM886.47 783.667c5.609 8.582 14.395 14.585 24.43 16.687 10.033 2.103 20.491 0.134 29.075-5.475 8.581-5.608 14.584-14.396 16.687-24.43s0.134-20.492-5.475-29.074l-6.349-9.728-64.205 42.291 5.837 9.728zM833.836 702.976l32.358-21.094 32.256-21.094-197.12-301.875-32.358 21.094-32.256 21.094 197.12 301.875zM598.316 290.202l6.144 19.661c10.299-2.662 19.438-8.636 26.010-16.998l-15.565-13.517c-1.679-1.525-3.816-2.451-6.078-2.631-2.26-0.18-4.517 0.398-6.415 1.641-1.898 1.24-3.331 3.079-4.071 5.222-0.742 2.144-0.751 4.474-0.025 6.622zM653.612 313.037c-10.311 12.718-24.348 21.886-40.141 26.214l10.24 33.485 56.218-36.762-26.317-22.938zM241.043 824.525c2.535 3.294 5.693 6.056 9.296 8.13 3.6 2.073 7.575 3.417 11.696 3.954l430.899 56.525c1.397 0.101 2.801 0.101 4.198 0 7.555-0.153 14.802-3.005 20.437-8.038s9.282-11.917 10.283-19.405l29.901-223.13-78.438-119.91-154.214-20.48c-4.073-0.257-7.878-2.123-10.577-5.186-2.697-3.063-4.069-7.072-3.809-11.148 0.257-4.073 2.123-7.878 5.186-10.575 3.063-2.699 7.072-4.069 11.146-3.812h2.048l128.102 17.51-54.579-83.661c-0.018-0.341-0.018-0.683 0-1.024-0.391-0.642-0.701-1.329-0.922-2.048l-9.523-30.72-218.317-29.389c-2.016-0.134-3.987-0.664-5.8-1.561-1.811-0.897-3.429-2.141-4.76-3.661-1.331-1.522-2.351-3.29-2.997-5.206-0.649-1.914-0.912-3.939-0.778-5.955s0.664-3.989 1.561-5.8c0.897-1.811 2.141-3.429 3.661-4.76 1.522-1.331 3.29-2.351 5.206-2.997 1.914-0.649 3.939-0.912 5.955-0.778h1.946l203.469 26.624-12.083-39.117c-2.631-8.497-2.426-17.617 0.585-25.987 3.013-8.367 8.665-15.528 16.106-20.4 6.658-4.387 14.452-6.736 22.426-6.758 9.885 0.064 19.415 3.7 26.829 10.24l80.691 69.837 0.819 0.922c0.626 0.578 1.176 1.231 1.638 1.946l66.765 102.4 34.099-258.048c0.551-4.112 0.282-8.29-0.79-12.297s-2.926-7.762-5.457-11.050c-2.448-3.254-5.52-5.992-9.036-8.049-3.516-2.055-7.407-3.393-11.444-3.932l-431.309-56.627c-4.107-0.532-8.281-0.248-12.279 0.833-4 1.081-7.746 2.938-11.027 5.468s-6.030 5.68-8.094 9.273c-2.062 3.593-3.397 7.557-3.928 11.664l-91.034 692.838c-1.088 8.302 1.158 16.698 6.246 23.347zM89.082 734.72l118.784 35.738 87.449-666.112c1.977-14.925 9.287-28.631 20.58-38.587s25.805-15.492 40.86-15.583c2.742 0 5.482 0.207 8.192 0.614l168.755 22.118-225.28-67.789c-7.971-2.392-16.564-1.525-23.896 2.412-7.334 3.934-12.807 10.615-15.221 18.58l-201.42 669.184c-1.198 3.98-1.6 8.158-1.183 12.295 0.417 4.135 1.645 8.149 3.613 11.81 1.969 3.659 4.639 6.897 7.859 9.525s6.927 4.598 10.908 5.794zM398.739 751.104c-0.523 4.032 0.573 8.107 3.049 11.332s6.13 5.336 10.16 5.872l245.76 32.358c2.018 0.262 4.066 0.124 6.030-0.405s3.805-1.441 5.416-2.682c1.611-1.241 2.963-2.787 3.978-4.55s1.67-3.709 1.934-5.726c0.262-2.017 0.123-4.066-0.405-6.030-0.53-1.964-1.443-3.804-2.683-5.416s-2.788-2.963-4.551-3.977c-1.761-1.014-3.707-1.671-5.725-1.933l-245.76-32.256h-1.946c-3.734 0.017-7.336 1.384-10.14 3.85-2.806 2.466-4.622 5.863-5.118 9.565zM324.396 600.986c-0.257 2.018-0.109 4.069 0.432 6.032s1.47 3.796 2.726 5.398c1.258 1.6 2.822 2.935 4.601 3.925 1.777 0.992 3.734 1.62 5.757 1.848l337.92 44.851c4.073 0.53 8.192-0.58 11.446-3.088 3.256-2.505 5.382-6.201 5.912-10.276 0.528-4.073-0.583-8.19-3.088-11.444-2.505-3.256-6.203-5.382-10.276-5.912l-340.173-44.646c-3.718 0.014-7.309 1.365-10.11 3.812-2.803 2.444-4.631 5.819-5.147 9.5zM439.187 475.648c0.289-2.012 0.175-4.062-0.335-6.030-0.51-1.966-1.406-3.814-2.633-5.432-1.229-1.62-2.767-2.979-4.526-4-1.757-1.019-3.7-1.682-5.716-1.946l-66.253-8.704h-1.946c-4.073-0.271-8.087 1.085-11.162 3.775-3.072 2.687-4.949 6.488-5.222 10.561-0.271 4.073 1.088 8.087 3.775 11.162 2.687 3.072 6.488 4.952 10.561 5.222l66.253 8.704c2.005 0.259 4.039 0.118 5.989-0.412 1.95-0.528 3.777-1.438 5.375-2.674 1.597-1.238 2.938-2.776 3.939-4.531 1.001-1.757 1.648-3.691 1.9-5.696zM378.873 186.88c-0.523 4.032 0.573 8.108 3.049 11.332s6.13 5.336 10.16 5.871l117.862 15.462c2.018 0.269 4.069 0.139 6.035-0.385s3.809-1.429 5.427-2.667c1.616-1.236 2.974-2.778 3.994-4.537 1.019-1.761 1.684-3.707 1.952-5.723s0.139-4.066-0.385-6.035c-0.523-1.966-1.429-3.809-2.665-5.427-1.238-1.616-2.781-2.972-4.54-3.994-1.761-1.019-3.705-1.684-5.723-1.952l-118.067-15.155h-1.946c-3.691 0.014-7.254 1.354-10.037 3.782-2.785 2.426-4.601 5.773-5.118 9.428z" />
<glyph unicode="&#xe901;" glyph-name="internet-1" d="M743.877 125.367h-192.835l-20.175 20.175 50.629 50.629c5.561 5.566 7.885 13.478 6.208 21.165-1.675 7.687-7.077 13.913-14.448 16.655l-264.278 98.356c-9.275 3.452-19.392 1.252-26.394-5.755-7.004-7.002-9.207-17.119-5.753-26.396l65.065-174.829h-264.963c-25.88 0-46.932 21.051-46.932 46.929v323.584c0 8.285-6.714 15-15 15s-15-6.715-15-15v-323.584c0-42.419 34.512-76.932 76.932-76.932h276.13l22.123-59.442c2.742-7.375 8.97-12.777 16.657-14.454s15.603 0.646 21.16 6.208l50.631 50.629 51.539-51.539c4.874-4.872 11.273-7.305 17.674-7.305s12.805 2.435 17.677 7.305l31.883 31.881c9.744 9.748 9.742 25.609-0.002 35.355 0 0 0 0-0.002 0l-1.359 1.359h162.832c8.285 0 15 6.715 15 15s-6.715 15.007-14.998 15.007zM532.849 51.523l-58.609 58.607c-2.929 2.929-6.768 4.392-10.606 4.392s-7.68-1.463-10.609-4.392l-53.528-53.528-90.74 243.817 243.814-90.742-53.528-53.528c-5.86-5.86-5.86-15.355 0-21.215l58.609-58.605-24.804-24.806zM947.068 876.536h-52.445c-8.285 0-14.998-6.714-14.998-15s6.713-15 14.998-15h52.445c25.878 0 46.931-21.052 46.931-46.932v-93.982h-963.999v93.982c0 25.878 21.052 46.932 46.932 46.932h748.319c8.285 0 14.998 6.714 14.998 15s-6.713 15-14.998 15h-748.319c-42.42 0-76.932-34.512-76.932-76.932v-236.224c0-8.285 6.714-15 15-15s15 6.715 15 15v112.24h963.999v-503.323c0-25.878-21.051-46.931-46.931-46.931h-131.318c-8.285 0-15-6.715-15-15s6.715-15 15-15h131.318c42.421 0 76.932 34.513 76.932 76.932v627.308c0 42.42-34.511 76.932-76.932 76.932zM99.4 776.078c0-15.346 12.44-27.786 27.784-27.786s27.784 12.44 27.784 27.786c0 15.346-12.44 27.784-27.784 27.784s-27.784-12.438-27.784-27.784zM184.867 776.078c0-15.346 12.44-27.786 27.784-27.786s27.785 12.44 27.785 27.786c0 15.346-12.44 27.784-27.785 27.784s-27.784-12.438-27.784-27.784zM270.334 776.078c0-15.346 12.44-27.786 27.785-27.786s27.782 12.44 27.782 27.786c0 15.346-12.438 27.784-27.782 27.784s-27.785-12.438-27.785-27.784zM183.617 345.379h0.086c6.34 0 12 3.989 14.128 9.965l37.157 104.264 35.503-104.073c2.064-6.051 7.739-10.128 14.133-10.156h0.064c6.369 0 12.045 4.023 14.154 10.040l50.369 143.692c2.74 7.814-1.377 16.375-9.196 19.117-7.812 2.74-16.377-1.377-19.119-9.196l-36.020-102.76-35.385 103.731c-4.012 13.182-24.143 13.303-28.325 0.191l-37.208-104.409-35.392 102.994c-2.692 7.837-11.224 12.010-19.060 9.309-7.834-2.692-12.004-11.225-9.31-19.060l49.32-143.524c2.070-6.028 7.726-10.088 14.1-10.126zM461.15 345.379h0.086c6.34 0 11.999 3.989 14.127 9.965l37.158 104.264 35.503-104.073c2.064-6.051 7.739-10.128 14.133-10.158h0.061c6.372 0 12.047 4.025 14.156 10.042l50.369 143.69c2.74 7.817-1.377 16.377-9.198 19.119-7.812 2.74-16.375-1.377-19.117-9.196l-36.020-102.76-35.385 103.731c-4.014 13.185-24.144 13.303-28.326 0.191l-37.208-104.409-35.392 102.992c-2.692 7.837-11.228 12.010-19.060 9.309-7.835-2.692-12.004-11.225-9.309-19.060l49.32-143.524c2.071-6.026 7.728-10.085 14.099-10.124zM734.176 345.379h0.084c6.34 0 11.999 3.989 14.129 9.965l37.155 104.264 35.503-104.073c2.064-6.051 7.741-10.128 14.133-10.156h0.064c6.369 0 12.045 4.023 14.156 10.040l50.365 143.692c2.74 7.814-1.377 16.375-9.196 19.117-7.814 2.74-16.377-1.377-19.119-9.196l-36.017-102.76-35.383 103.731c-4.012 13.182-24.146 13.303-28.326 0.191l-37.21-104.409-35.392 102.992c-2.694 7.835-11.216 12.006-19.060 9.309-7.835-2.692-12.006-11.225-9.312-19.060l49.323-143.524c2.071-6.026 7.726-10.085 14.102-10.124z" />
<glyph unicode="&#xe902;" glyph-name="megaphone-1" d="M660.198 634.345c-99.585 146.511-232.594 224.38-302.248 176.669-7.669-5.401-14.334-12.104-19.693-19.805 0-0.563-161.251-326.893-161.251-326.893l-90.022-60.989c-13.82-9.38-25.656-21.392-34.832-35.348-9.176-13.958-15.513-29.584-18.648-45.991s-3.007-33.269 0.377-49.625c3.384-16.357 9.957-31.887 19.344-45.702l4.051-5.964c18.974-27.641 48.081-46.685 81.006-53.005s67.015 0.596 94.873 19.247l144.598-213.015c21.27-26.219 62.116-52.326 112.528-21.606 8.932 5.791 16.55 13.389 22.364 22.305s9.696 18.951 11.394 29.459c2.037 10.452 1.982 21.201-0.162 31.632-2.144 10.429-6.335 20.33-12.329 29.132l-127.381 187.92c0 0 301.124 23.968 302.248 24.419 9.403 1.968 18.316 5.794 26.219 11.253 35.785 24.307 48.613 75.282 36.234 143.585-11.139 62.903-42.76 134.133-88.672 202.324zM90.022 242.863l-4.051 5.964c-6.477 9.535-11.009 20.252-13.338 31.541s-2.409 22.926-0.235 34.245c2.174 11.321 6.559 22.1 12.905 31.724s14.526 17.9 24.074 24.358l77.756 52.886 102.625-151.124-77.756-52.888c-9.537-6.483-20.259-11.025-31.552-13.364s-22.937-2.43-34.265-0.266c-11.328 2.162-22.119 6.538-31.756 12.873s-17.93 14.509-24.406 24.053zM479.141 42.676c6.151-9.15 8.42-20.368 6.31-31.189-2.109-10.823-8.424-20.366-17.563-26.538-9.168-6.155-20.403-8.429-31.243-6.319s-20.403 8.429-26.594 17.572l-144.147 212.339 57.952 39.385 15.303 1.238 139.983-206.488zM327.004 287.762l-111.852 164.739 106.677 217.516c10.352-61.103 40.621-133.682 89.008-204.912 48.387-71.232 104.651-126.143 157.539-158.326l-241.373-19.017zM658.96 313.981c-53.787 3.486-141.335 64.139-215.488 173.404-74.156 109.263-98.238 212.676-81.697 264.101 2.988 9.653 8.95 18.115 17.033 24.177s17.877 9.416 27.98 9.581c53.337 0 144.147-60.99 220.44-173.405 42.985-63.24 74.27-129.406 82.821-187.246 16.766-110.612-51.088-110.612-51.088-110.612zM519.541 630.183c-13.783 2.706-27.969 2.637-41.727-0.203-13.756-2.84-26.808-8.397-38.393-16.341-2.134-1.477-3.959-3.361-5.366-5.543s-2.371-4.622-2.835-7.175c-0.466-2.555-0.423-5.177 0.125-7.714 0.548-2.54 1.591-4.945 3.070-7.079 1.477-2.137 3.361-3.959 5.543-5.366 2.182-1.409 4.619-2.371 7.175-2.838 2.555-0.464 5.177-0.421 7.714 0.127 2.54 0.548 4.945 1.591 7.079 3.067 7.336 4.981 15.583 8.467 24.269 10.26 8.684 1.793 17.636 1.857 26.344 0.191 8.711-1.668 17.005-5.034 24.414-9.905s13.785-11.157 18.764-18.493c4.981-7.339 8.467-15.583 10.26-24.269 1.793-8.684 1.857-17.636 0.191-26.344-1.666-8.711-5.034-17.005-9.905-24.414s-11.157-13.785-18.493-18.764c-3.459-2.389-6.064-5.823-7.432-9.799s-1.427-8.285-0.168-12.297c1.256-4.012 3.766-7.516 7.159-9.999 3.391-2.483 7.489-3.816 11.694-3.802 4.012-0.075 7.946 1.106 11.253 3.375 17.501 11.858 31.091 28.642 39.046 48.228s9.919 41.092 5.641 61.795c-4.278 20.703-14.605 39.67-29.671 54.5s-34.195 24.851-54.964 28.802h-0.787zM684.503 771.292h1.911c4.872 0.002 9.569 1.809 13.185 5.072s5.896 7.75 6.397 12.595l15.192 147.636c0.346 2.611 0.164 5.264-0.535 7.803-0.696 2.539-1.898 4.913-3.529 6.98s-3.659 3.786-5.967 5.056c-2.307 1.269-4.847 2.063-7.466 2.334s-5.266 0.014-7.785-0.756c-2.519-0.77-4.856-2.037-6.877-3.727-2.018-1.69-3.68-3.767-4.883-6.11-1.201-2.343-1.923-4.903-2.119-7.529l-15.080-147.749c-0.535-5.192 1.015-10.385 4.305-14.436 3.293-4.051 8.058-6.63 13.251-7.169zM939.044 801.674c-2.89 4.358-7.389 7.396-12.511 8.45s-10.454 0.039-14.832-2.824l-137.17-90.023c-3.561-2.351-6.265-5.796-7.698-9.817s-1.522-8.397-0.253-12.472c1.27-4.076 3.83-7.628 7.293-10.122 3.463-2.496 7.644-3.798 11.91-3.709 3.98-0.093 7.898 1.004 11.253 3.149l137.17 90.023c4.255 2.994 7.154 7.551 8.060 12.674s-0.253 10.397-3.222 14.67zM981.019 561.316l-159.564 28.695c-5.147 0.924-10.454-0.234-14.748-3.22s-7.227-7.555-8.151-12.704c-0.926-5.147 0.232-10.452 3.218-14.746 2.986-4.296 7.557-7.227 12.704-8.153l159.45-28.695h3.488c5.018-0.146 9.903 1.629 13.656 4.963s6.089 7.974 6.535 12.975c0.446 4.999-1.035 9.981-4.139 13.924-3.104 3.946-7.598 6.556-12.563 7.298l0.114-0.337z" />
<glyph unicode="&#xe903;" glyph-name="network-2" d="M912.291 960c-61.608 0-111.709-50.102-111.709-111.709 0-19.27 4.897-37.404 13.517-53.248l-182.998-182.998c-25.227 19.643-56.805 31.446-91.172 31.446-34.37 0-65.946-11.803-91.193-31.428l-142.782 142.783c6.554 11.078 10.556 23.813 10.556 37.59 0 41.072-33.401 74.473-74.472 74.473-41.073 0-74.473-33.401-74.473-74.473s33.401-74.473 74.473-74.473c13.776 0 26.512 4.003 37.59 10.556l142.782-142.782c-19.624-25.245-31.428-56.823-31.428-91.191 0-34.37 11.803-65.946 31.428-91.175l-235.781-235.8c-19.847 18.004-46.080 29.082-74.919 29.082-61.607 0-111.709-50.101-111.709-111.707 0-61.608 50.102-111.709 111.709-111.709s111.709 50.101 111.709 111.709c0 19.269-4.897 37.403-13.517 53.248l238.852 238.851c20.592-16.011 45.429-26.736 72.574-30.142v-189.162c-52.745-8.897-93.091-54.773-93.091-110.032 0-61.608 50.101-111.709 111.709-111.709s111.709 50.101 111.709 111.709c0 55.239-40.346 101.114-93.091 110.032v189.162c27.145 3.407 51.981 14.131 72.572 30.142l142.784-142.782c-6.572-11.098-10.575-23.832-10.575-37.61 0-41.072 33.401-74.472 74.472-74.472s74.472 33.401 74.472 74.472c0 41.074-33.401 74.474-74.472 74.474-13.778 0-26.512-4.003-37.59-10.556l-142.784 142.782c19.624 25.247 31.428 56.823 31.428 91.193 0 34.368-11.803 65.946-31.428 91.172l179.946 179.945c19.827-18.004 46.060-29.082 74.9-29.082 61.608 0 111.709 50.102 111.709 111.709s-50.101 111.709-111.709 111.709zM204.8 792.436c0 20.536 16.701 37.237 37.237 37.237s37.235-16.701 37.235-37.237-16.7-37.236-37.235-37.236c-20.537 0-37.237 16.701-37.237 37.236zM111.709 10.472c-41.072 0-74.473 33.401-74.473 74.474 0 41.072 33.401 74.472 74.473 74.472s74.473-33.401 74.473-74.472c0-41.074-33.401-74.474-74.473-74.474zM614.4 47.709c0-41.072-33.401-74.472-74.472-74.472s-74.474 33.401-74.474 74.472c0 41.072 33.403 74.472 74.474 74.472s74.472-33.401 74.472-74.472zM539.928 382.837c-61.608 0-111.709 50.101-111.709 111.709 0 61.606 50.101 111.707 111.709 111.707 61.606 0 111.709-50.101 111.709-111.707 0-61.608-50.103-111.709-111.709-111.709zM875.054 196.654c0-20.535-16.7-37.235-37.235-37.235-20.537 0-37.237 16.7-37.237 37.235 0 20.537 16.7 37.237 37.237 37.237 20.535 0 37.235-16.7 37.235-37.237zM912.291 773.818c-41.072 0-74.472 33.401-74.472 74.473s33.401 74.473 74.472 74.473c41.072 0 74.472-33.401 74.472-74.473s-33.401-74.473-74.472-74.473z" />
<glyph unicode="&#xe904;" glyph-name="network-1" d="M99.73 620.442l-0.144 0.143c-7.812 7.81-20.472 7.81-28.284 0-7.81-7.81-7.81-20.473 0-28.283l0.146-0.143c3.906-3.905 9.024-5.86 14.142-5.86s10.236 1.955 14.142 5.86c7.808 7.807 7.808 20.471-0.002 28.283zM703.898 900.262c-7.812 7.808-20.473 7.808-28.285 0-7.81-7.81-7.81-20.474 0-28.284l0.121-0.118c3.889-3.89 8.97-5.828 14.054-5.828 5.125 0 10.249 1.968 14.17 5.888 7.807 7.81 7.751 20.534-0.059 28.342zM1009.436 215.604c-4.091 10.26-15.722 15.264-25.985 11.168-10.26-4.091-15.26-15.724-11.168-25.982 18.976-47.577 14.454-100.272-10.49-143.187-10.22 28.586-33.958 51.261-64.562 59.337l-5.363 1.415c7.571 12.597 11.935 27.327 11.935 43.063v16.659c0 46.239-37.619 83.859-83.859 83.859s-83.856-37.619-83.856-83.859v-16.659c0-15.735 4.365-30.463 11.933-43.060l-5.363-1.415c-30.588-8.074-54.324-30.734-64.551-59.303-36.384 62.737-27.773 144.612 25.878 198.26 46.13 46.135 115.195 60.553 175.953 36.714 10.283-4.035 21.886 1.035 25.919 11.316 4.035 10.281-1.033 21.889-11.316 25.921-75.551 29.637-161.457 11.715-218.842-45.666-9.551-9.553-18.036-19.888-25.402-30.857l-182.477 97.571c26.667 61.734 26.667 132.319 0 194.053l182.547 97.61c7.334-10.966 15.772-21.333 25.334-30.893 38.53-38.53 89.757-59.747 144.243-59.747 54.488 0 105.713 21.217 144.243 59.747 79.537 79.535 79.537 208.952 0 288.487-57.735 57.736-144.059 75.497-219.901 45.242-10.26-4.092-15.262-15.724-11.168-25.982 4.089-10.26 15.726-15.272 25.982-11.168 60.992 24.324 130.389 10.042 176.813-36.376 53.651-53.652 62.261-135.523 25.875-198.261-10.229 28.567-33.96 51.232-64.553 59.303l-5.361 1.416c7.571 12.596 11.933 27.326 11.933 43.062v16.66c0 46.24-37.617 83.858-83.856 83.858s-83.856-37.618-83.856-83.858v-16.66c0-15.736 4.362-30.464 11.933-43.060l-5.363-1.416c-30.593-8.073-54.331-30.738-64.555-59.314-24.751 42.639-29.391 94.992-10.834 142.306 4.035 10.282-1.033 21.888-11.314 25.92-10.283 4.038-21.886-1.034-25.921-11.316-19.663-50.128-18.373-104.797 1.468-152.682l-182.531-97.601c-9.202 14.252-20.023 27.755-32.49 40.225-37.861 37.861-85.832 61.763-138.729 69.125-51.156 7.125-104.244-2.387-149.482-26.763-9.724-5.238-13.36-17.372-8.122-27.090 5.242-9.723 17.376-13.36 27.092-8.121 78.64 42.373 177.727 27.803 240.954-35.43 65.591-65.591 77.080-165.094 34.497-242.574-12.732 35.151-42.011 63.010-79.708 72.961l-15.078 3.978c12.031 16.866 19.14 37.472 19.14 59.72v21.677c0 56.846-46.246 103.092-103.092 103.092s-103.093-46.246-103.093-103.092v-21.677c0-22.25 7.108-42.853 19.14-59.72l-15.078-3.98c-37.64-9.933-66.886-37.722-79.648-72.797-32.45 59.547-34.096 133.452-0.996 194.883 5.24 9.723 1.606 21.854-8.118 27.090-9.73 5.243-21.854 1.607-27.092-8.117-24.38-45.243-33.884-98.329-26.77-149.484 7.362-52.898 31.264-100.871 69.124-138.732 47.566-47.566 110.047-71.35 172.528-71.35s124.962 23.784 172.53 71.35c12.47 12.47 23.29 25.975 32.488 40.225l182.424-97.544c-10.131-24.444-15.44-50.884-15.44-78.143 0-54.486 21.217-105.713 59.747-144.243 39.777-39.772 92.012-59.654 144.247-59.654 52.238 0 104.478 19.884 144.245 59.651 57.733 57.735 75.494 144.054 45.24 219.907zM776.092 794.047c0 24.186 19.674 43.86 43.859 43.86s43.859-19.676 43.859-43.86v-16.66c0-24.184-19.674-43.858-43.859-43.858s-43.859 19.676-43.859 43.858v16.66zM712.611 637.82v4.162c0 24.515 16.555 46 40.257 52.256l30.060 7.935c11.171-5.523 23.736-8.64 37.019-8.64 13.285 0 25.848 3.118 37.019 8.638l30.060-7.935c23.702-6.253 40.255-27.741 40.255-52.256v-9.883c0-0.041 0.007-0.080 0.007-0.116-29.805-25.896-67.475-40.063-107.343-40.063-40.182 0-78.136 14.393-108.050 40.676 0.455 1.668 0.717 3.416 0.717 5.227zM180.862 507.927c0 34.789 28.302 63.094 63.095 63.094 34.791 0 63.094-28.303 63.094-63.094v-21.677c0-34.791-28.303-63.097-63.094-63.097s-63.095 28.301-63.095 63.097v21.677zM389.646 305.168c-0.485-0.494-0.958-0.994-1.45-1.484-79.533-79.537-208.95-79.537-288.485-0.002-0.496 0.496-0.96 1.013-1.45 1.511v4.861c0 34.627 23.386 64.988 56.87 73.824l41.342 10.911c14.222-7.414 30.364-11.63 47.481-11.63 17.119 0 33.26 4.217 47.479 11.63l41.342-10.909c33.483-8.836 56.871-39.194 56.871-73.824v-4.888zM776.092 178.076c0 24.185 19.674 43.859 43.859 43.859s43.859-19.677 43.859-43.859v-16.662c0-24.182-19.674-43.859-43.859-43.859s-43.859 19.677-43.859 43.859v16.662zM711.898 16.623c0.451 1.668 0.712 3.416 0.712 5.225v4.16c0 24.512 16.555 46.003 40.257 52.258l30.058 7.935c11.173-5.523 23.739-8.64 37.021-8.64s25.848 3.118 37.021 8.64l30.058-7.935c23.702-6.253 40.255-27.741 40.255-52.258v-9.883c0-0.034 0.007-0.071 0.007-0.107-61.645-53.473-153.973-53.273-215.388 0.605zM964.296 284.285c-7.81 7.807-20.471 7.807-28.283 0l-0.118-0.118c-7.81-7.812-7.751-20.414 0.059-28.224 3.889-3.889 8.998-5.828 14.113-5.828 5.152 0 10.311 1.966 14.231 5.887 7.807 7.807 7.807 20.471-0.002 28.283z" />
<glyph unicode="&#xe905;" glyph-name="wishlist-1" d="M746.667 448c-4.481 0-8.959 1.409-12.757 4.223-10.838 8.065-264.577 199.254-264.577 352.897 0 85.419 69.505 154.88 154.922 154.88 48.683 0 93.569-22.656 122.411-59.904 28.886 37.248 73.771 59.904 122.411 59.904 85.418 0 154.922-69.461 154.922-154.88 0-153.642-253.738-344.832-264.577-352.897-3.798-2.815-8.276-4.223-12.757-4.223zM624.255 917.333c-61.866 0-112.255-50.347-112.255-112.213 0-103.553 158.891-249.514 234.667-308.908 75.776 59.394 234.667 205.312 234.667 308.908 0 61.867-50.39 112.213-112.255 112.213-44.715 0-85.078-26.411-102.828-67.328-3.413-7.808-11.093-12.843-19.583-12.843s-16.213 5.034-19.583 12.843c-17.706 40.917-58.070 67.328-102.828 67.328zM831.998 234.667h-554.667c-10.156 0-18.903 7.168-20.908 17.151l-85.333 426.667c-1.28 6.274 0.384 12.759 4.395 17.708s10.155 7.807 16.512 7.807h213.334c11.776 0 21.333-9.557 21.333-21.333s-9.557-21.333-21.333-21.333h-187.307l76.8-384h519.68l34.987 174.847c2.346 11.605 14.038 19.158 25.088 16.725 11.562-2.303 19.071-13.524 16.769-25.086l-38.4-192.002c-2.048-9.983-10.795-17.151-20.949-17.151zM277.29 234.667c-9.942 0-18.814 6.997-20.862 17.153l-105.772 528.81c-5.931 29.824-32.384 51.456-62.763 51.456l-66.517-0.085c-11.776 0-21.376 9.557-21.376 21.333s9.557 21.333 21.291 21.333l66.603 0.085c50.688 0 94.677-36.053 104.619-85.76l105.727-528.81c2.348-11.564-5.161-22.785-16.766-25.088-1.365-0.3-2.774-0.428-4.182-0.428zM917.333 149.333h-725.333c-35.285 0-64 28.715-64 64s28.715 64 64 64h85.333c11.776 0 21.333-9.557 21.333-21.333s-9.557-21.333-21.333-21.333h-85.333c-11.733 0-21.333-9.557-21.333-21.333s9.6-21.333 21.333-21.333h725.333c11.776 0 21.333-9.557 21.333-21.333s-9.557-21.333-21.333-21.333zM341.333-64c-47.061 0-85.333 38.273-85.333 85.333s38.273 85.333 85.333 85.333c47.061 0 85.333-38.273 85.333-85.333s-38.273-85.333-85.333-85.333zM341.333 64c-23.552 0-42.667-19.158-42.667-42.667s19.115-42.667 42.667-42.667c23.552 0 42.667 19.158 42.667 42.667s-19.115 42.667-42.667 42.667zM725.333-64c-47.061 0-85.333 38.273-85.333 85.333s38.273 85.333 85.333 85.333c47.061 0 85.333-38.273 85.333-85.333s-38.273-85.333-85.333-85.333zM725.333 64c-23.552 0-42.667-19.158-42.667-42.667s19.115-42.667 42.667-42.667c23.552 0 42.667 19.158 42.667 42.667s-19.115 42.667-42.667 42.667z" />
<glyph unicode="&#xe906;" glyph-name="tick" d="M1024 448c0-76-48-140-116-166.003 29.997-64 18.003-144-34.003-195.994-53.997-54.003-131.994-66.003-197.997-36.006-26.003-67.994-90-113.997-164-113.997-76 0-140 46.003-166 113.997-64-29.997-144-17.997-196 36.006-54 51.994-66 131.994-36 195.994-68 26.003-114 90.003-114 166.003 0 74 46 138 114 164-30 64-18 144 36 198 52 52 132 64 196 34 26 68 90 116 166 116 74 0 137.997-48 164-116 64 30 144 18 197.997-34 52.006-54 64-134 34.003-198 68-26 116-90 116-164zM734.003 536c8 8 8 22 0 30l-52.006 52c-8 10-21.997 10-32 0l-193.997-192-84 84c-8 10-22 10-32 2l-52-52c-8-10-8-24 0-32l152-152c8-8 22-10.003 32 0l262.003 260z" />
<glyph unicode="&#xe907;" glyph-name="blog" horiz-adv-x="975" d="M396.19 752.762c211.427-17.143 379.046-184.762 396.19-396.19 0-17.145-15.238-30.476-32.383-30.476h-30.476c-15.238 0-28.57 11.43-30.476 28.57-13.332 161.907-142.858 295.24-304.76 306.668-17.143 0-28.572 13.333-28.572 28.572v30.476c0 19.047 13.333 32.381 30.476 32.381zM396.19 935.619c312.379-17.143 561.903-266.667 579.048-579.048 0-17.145-15.238-30.476-32.383-30.476h-30.476c-15.238 0-28.57 11.43-28.57 28.57-13.332 262.859-226.665 474.288-489.524 487.621-17.143 1.905-28.572 15.238-28.572 30.476v30.476c0 17.143 13.333 32.381 30.476 32.381zM260.952 508.952c156.191 0 291.427-127.62 285.713-283.809-3.808-144.764-119.998-260.954-262.855-264.763-158.095-5.715-283.809 129.521-283.809 287.617v474.288c0 15.238 13.333 30.476 30.476 30.476h60.952c15.238 0 30.476-15.238 30.476-30.476v-478.096c0-89.522 72.381-167.619 161.905-161.904 76.19 3.808 137.143 64.761 140.953 140.951 5.714 89.527-72.381 163.811-161.905 163.811h-19.047c-17.143 0-30.476 13.332-30.476 30.476v60.952c0 15.238 13.333 30.476 30.476 30.476h17.143z" />
<glyph unicode="&#xe908;" glyph-name="comment" horiz-adv-x="1132" d="M828.632 633.263c16.842 0 33.684-16.842 33.684-33.684v-33.684c0-18.947-16.842-33.684-33.684-33.684h-471.579c-18.947 0-33.684 14.737-33.684 33.684v33.684c0 16.842 14.737 33.684 33.684 33.684h471.579zM626.526 431.158c16.842 0 33.684-16.842 33.684-33.684v-33.684c0-18.949-16.842-33.684-33.684-33.684h-269.474c-18.947 0-33.684 14.735-33.684 33.684v33.684c0 16.842 14.737 33.684 33.684 33.684h269.474zM592.842 919.579c296.841 0 538.947-197.895 538.947-437.895 0-242.106-242.106-437.895-538.947-437.895-69.474 0-134.737 10.526-195.789 29.475-61.052-44.21-164.211-96.843-292.632-96.843-21.052 0-40 10.526-48.421 29.475-6.316 18.944-4.21 40.001 10.527 54.735 2.105 0 67.368 71.578 96.842 153.686-69.474 73.679-109.474 166.314-109.474 267.366 0 240 240 437.895 538.947 437.895zM592.842 144.842c239.999 0 437.895 149.472 437.895 336.842 0 185.263-197.896 336.842-437.895 336.842-242.105 0-437.895-151.579-437.895-336.842 0-90.527 44.21-157.895 82.105-197.896l44.21-46.312-23.158-58.95c-10.526-29.475-25.263-58.95-42.105-84.211 50.526 16.842 92.632 40.001 122.106 61.052l40 29.475 48.421-14.735c52.631-16.847 109.474-25.266 166.316-25.266z" />
<glyph unicode="&#xe909;" glyph-name="chart-line" horiz-adv-x="1365" d="M312 389.333l-29.334 29.334c-16 16-16 45.334 0 61.334l197.334 197.334c16 16 45.333 16 61.334 0l226.666-226.667 231.997 234.667-77.332 80c-42.667 40-13.332 109.333 45.336 109.333h269.332c21.333 0 42.667-21.333 42.667-42.667v-269.333c0-58.667-69.332-88.001-109.336-45.334l-79.995 77.334-293.335-293.334c-16.002-16-45.336-16-61.338 0l-223.997 226.667-138.667-138.667c-16-16-45.333-16-61.334 0zM1322.667 64c21.333 0 42.667-21.333 42.667-42.667v-42.667c0-24.003-21.333-42.667-42.667-42.667h-1237.333c-48 0-85.333 37.335-85.333 85.333v896c0 21.333 18.667 42.667 42.667 42.667h42.667c21.333 0 42.667-21.333 42.667-42.667v-853.333h1194.667z" />
<glyph unicode="&#xe90a;" glyph-name="share" horiz-adv-x="1071" d="M1031.638 601.091c34.541-32.727 34.541-89.091 0-121.817l-261.818-261.818c-54.547-54.547-147.274-16.365-147.274 61.817v96.363c-185.455-14.545-181.818-56.362-154.545-141.819 27.271-79.998-60.001-145.455-129.091-101.818-92.727 58.182-152.727 150.91-152.727 263.638 0 70.907 21.818 130.909 65.455 180 36.364 40 87.273 69.091 150.909 89.091 65.455 21.818 141.817 29.091 220 32.728v103.636c0 78.181 92.728 116.364 147.274 61.818l261.818-261.818zM709.818 279.273l261.818 261.818-261.818 261.818v-190.909c-201.816 0-436.364-18.182-436.364-216.364 0-96.363 58.182-156.365 112.728-189.091-72.727 218.182 89.089 256.363 323.636 259.998v-187.271zM753.455 124.728c14.545 3.635 27.271 9.090 38.181 16.361 14.545 9.095 34.546-1.815 34.546-18.181v-76.362c0-49.091-40.001-87.273-87.273-87.273h-640c-49.091 0-87.273 38.181-87.273 87.273v640c0 47.272 38.182 87.273 87.273 87.273h240c10.909 0 21.818-10.909 21.818-21.818v-9.091c0-9.091-5.455-16.364-14.545-20-25.455-9.091-47.272-21.818-69.091-34.546-3.636-1.818-7.272-1.818-10.909-1.818h-156.363c-7.273 0-10.909-5.455-10.909-10.909v-618.18c0-7.275 3.636-10.91 10.909-10.91h618.18c5.455 0 10.91 3.635 10.91 10.91v45.452c0 10.91 5.455 20.001 14.545 21.821z" />
<glyph unicode="&#xe90b;" glyph-name="users" horiz-adv-x="1347" d="M1145.263 515.368c-94.736 0-168.421 73.684-168.421 168.421 0 92.632 73.685 168.421 168.421 168.421 92.634 0 168.421-75.789 168.421-168.421 0-94.737-75.787-168.421-168.421-168.421zM1145.263 751.158c-37.893 0-67.368-31.579-67.368-67.368 0-37.894 29.475-67.368 67.368-67.368 35.791 0 67.368 29.474 67.368 67.368 0 35.789-31.577 67.368-67.368 67.368zM202.105 515.368c-94.737 0-168.421 73.684-168.421 168.421 0 92.632 73.684 168.421 168.421 168.421 92.632 0 168.421-75.789 168.421-168.421 0-94.737-75.789-168.421-168.421-168.421zM202.105 751.158c-37.894 0-67.368-31.579-67.368-67.368 0-37.894 29.474-67.368 67.368-67.368 35.789 0 67.368 29.474 67.368 67.368 0 35.789-31.579 67.368-67.368 67.368zM1035.792 306.947c25.26-40.001 42.103-86.318 39.995-136.839v-92.634c0-56.843-44.21-101.053-101.053-101.053h-606.314c-54.737 0-101.053 44.21-101.053 101.053v92.634c0 50.521 16.842 96.838 42.105 136.839 56.842 86.318 170.526 117.895 269.474 86.318 29.475-8.424 61.052-12.633 92.629-12.633 33.684 0 65.267 4.209 94.742 12.633 98.945 31.577 210.524-2.107 269.474-86.318zM976.842 77.474v92.634c0 77.894-63.159 141.048-138.946 143.155-52.634-23.159-109.476-33.684-164.212-33.684-56.843 0-113.686 10.526-166.316 33.684-75.789-2.107-136.842-65.261-136.842-143.155v-92.634h606.316zM1170.529 448c96.838 0 176.839-80.001 174.732-176.839 0-29.475-21.051-50.532-50.526-50.532-27.368 0-50.526 21.057-50.526 50.532 0 39.995-33.684 75.787-75.787 75.787h-50.526c-8.424 0-16.842-4.209-25.266-6.316-18.944 29.475-44.21 54.735-71.578 75.792 27.368 18.945 61.052 31.577 98.945 31.577h50.532zM673.684 448c-130.528 0-235.789 105.263-235.789 235.789 0 128.421 105.262 235.789 235.789 235.789 128.42 0 235.789-107.369 235.789-235.789 0-130.527-107.369-235.789-235.789-235.789zM673.684 818.526c-75.787 0-134.737-61.052-134.737-134.737 0-75.789 58.95-134.737 134.737-134.737 73.685 0 134.737 58.947 134.737 134.737 0 73.684-61.052 134.737-134.737 134.737zM324.21 416.423c-27.368-21.057-52.631-46.317-71.579-75.792-8.421 2.107-16.842 6.316-25.263 6.316h-50.526c-42.105 0-75.789-35.791-75.789-75.787 0-29.475-23.158-50.532-50.526-50.532-29.474 0-50.526 21.057-50.526 50.532 0 96.838 77.895 176.839 176.842 176.839h50.526c35.789 0 69.474-12.632 96.842-31.577z" />
<glyph unicode="&#xe90c;" glyph-name="address" horiz-adv-x="1280" d="M1155.002 942c56.874 0 104.998-48.125 104.998-105v-769.998c0-59.066-48.125-105.002-104.998-105.002h-1050.002c-59.062 0-105 45.936-105 105.002v769.998c0 56.875 45.938 105 105 105h1050.002zM1155.002 67.002v769.998h-1050.002v-769.998h1050.002zM455.002 452c-78.752 0-140.002 61.251-140.002 140 0 76.563 61.25 140 140.002 140 76.56 0 140-63.437 140-140 0-78.749-63.44-140-140-140zM258.125 172c-26.25 0-48.125 17.501-48.125 41.562v41.565c0 70 65.625 126.874 146.563 126.874 24.061 0 39.373-17.501 98.438-17.501 56.874 0 74.374 17.501 96.25 17.501 80.938 0 148.749-56.874 148.749-126.874v-41.565c0-24.061-21.875-41.562-50.314-41.562h-391.561zM787.501 312c-10.938 0-17.501 6.563-17.501 17.501v34.998c0 8.752 6.563 17.501 17.501 17.501h244.998c8.752 0 17.501-8.749 17.501-17.501v-34.998c0-10.938-8.749-17.501-17.501-17.501h-244.998zM787.501 452c-10.938 0-17.501 6.563-17.501 17.501v34.998c0 8.752 6.563 17.501 17.501 17.501h244.998c8.752 0 17.501-8.749 17.501-17.501v-34.998c0-10.938-8.749-17.501-17.501-17.501h-244.998zM787.501 592c-10.938 0-17.501 6.563-17.501 17.501v34.999c0 8.75 6.563 17.5 17.501 17.5h244.998c8.752 0 17.501-8.75 17.501-17.5v-34.999c0-10.938-8.749-17.501-17.501-17.501h-244.998z" />
<glyph unicode="&#xe90d;" glyph-name="setting" horiz-adv-x="996" d="M878.888 488.499c1.946-25.276 1.946-50.554 0-73.887l62.222-36.946c17.502-9.722 27.224-31.11 21.39-52.5-21.39-81.667-66.111-155.554-124.444-215.831-15.556-13.614-38.889-17.502-56.388-7.78l-62.222 36.944c-19.445-15.553-40.835-27.221-64.168-36.944v-71.945c0-21.387-13.611-38.889-35.001-44.72-79.721-21.39-167.222-21.39-246.943 0-21.39 5.831-35.001 23.333-35.001 44.72v71.945c-23.333 9.722-44.72 21.39-64.166 36.944l-62.222-36.944c-17.5-9.722-40.833-5.834-56.389 7.78-58.333 60.277-103.056 134.164-124.444 215.831-5.833 21.39 3.889 42.778 21.389 52.5l62.222 36.946c-1.944 11.665-1.944 23.333-1.944 34.998 0 13.614 0 25.279 1.944 38.889l-62.222 35.001c-17.5 9.722-27.222 31.11-21.389 52.5 21.389 81.667 66.111 155.556 124.444 215.833 15.555 13.611 38.889 17.5 56.389 7.778l62.222-36.944c19.445 15.556 40.833 27.222 64.166 36.944v71.944c0 21.389 13.611 38.889 35.001 44.722 79.721 21.389 167.222 21.389 246.943 0 21.39-5.833 35.001-23.333 35.001-44.722v-71.944c23.333-9.722 44.723-21.389 64.168-36.944l62.222 36.944c17.499 9.722 40.832 5.833 56.388-7.778 58.334-60.278 103.054-134.166 124.444-215.833 5.834-21.39-3.888-42.778-21.39-52.5l-62.222-35.001zM775.834 364.055c15.556 81.667 15.556 91.389 0 173.056l85.555 48.612c-15.556 40.832-36.944 79.721-66.111 112.778l-85.555-48.61c-60.279 52.499-70.002 58.332-147.777 85.554v99.167c-21.39 3.889-42.778 5.833-64.168 5.833-23.333 0-44.723-1.944-66.111-5.833v-99.167c-77.778-27.222-85.555-33.056-147.778-85.554l-85.555 48.61c-29.167-33.056-50.556-71.946-66.111-112.778l85.555-48.612c-15.555-81.667-15.555-91.389 0-173.056l-85.555-48.612c15.555-40.832 36.944-79.721 66.111-112.777l85.555 48.612c60.277-52.5 70-58.334 147.778-85.555v-99.169c21.387-3.888 42.778-5.831 64.165-5.831 23.336 0 44.723 1.943 66.113 5.831v99.169c77.776 27.221 85.555 33.055 147.777 85.555l85.555-48.612c29.167 33.055 50.554 71.945 66.111 112.777l-85.555 48.612zM497.778 638.222c101.111 0 186.667-85.555 186.667-186.667 0-103.054-85.555-186.667-186.667-186.667-103.054 0-186.667 83.612-186.667 186.667 0 101.111 83.612 186.667 186.667 186.667zM497.778 358.224c50.554 0 93.332 40.832 93.332 93.332 0 50.554-42.778 93.332-93.332 93.332-52.5 0-93.332-42.778-93.332-93.332 0-52.5 40.832-93.332 93.332-93.332z" />
<glyph unicode="&#xe90e;" glyph-name="pen" horiz-adv-x="1081" d="M824.445 949.333c147.777 0 233.333-188.611 114.722-293.612l-412.223-371.388-54.446-167.222c-7.777-21.39-23.333-36.944-42.778-42.778l-365.555-120.556-64.167 66.111 120.556 363.611c5.833 21.39 21.389 36.944 42.778 42.778l165.277 56.391 373.333 410.276c33.055 36.944 77.778 56.389 122.502 56.389zM386.944 157.943l52.5 155.557v3.888l-77.778 77.778-1.943-1.946-155.556-50.554-68.055-210 97.222 97.22c0 1.946-1.944 1.946-1.944 3.891 0 25.276 21.389 46.666 46.667 46.666 27.222 0 46.666-21.39 46.666-46.666 0-27.224-19.445-46.669-46.666-46.669 0 0 0 0-1.944 0l-97.222-97.22 208.055 68.053zM874.999 723.778c17.502 15.556 25.279 33.056 25.279 52.5 1.946 42.778-35.001 79.722-75.833 79.722-19.445 0-38.889-9.722-52.5-25.278l-340.278-375.278 69.999-69.999 373.333 338.333z" />
<glyph unicode="&#xe90f;" glyph-name="maintenance" horiz-adv-x="996" d="M423.784 738.432v32.162h-3.783c13.243 24.595 30.269 45.406 49.188 64.324 71.893 73.784 175.945 102.162 276.217 77.567 24.595-5.676 41.621-24.595 49.188-47.297 5.676-22.703 0-47.297-17.026-64.324l-111.622-109.73 9.46-62.432 62.434-9.46 111.622 111.622c15.133 15.135 39.728 22.703 64.324 17.027 22.702-7.568 39.728-24.595 45.405-49.189 24.595-98.378-5.676-204.324-77.567-276.217-17.029-17.026-35.948-32.162-54.867-43.512l-58.648 58.648c-3.783 1.893-7.567 5.676-9.46 7.567 20.812 9.46 41.621 22.705 58.648 41.621 39.731 37.838 60.543 90.812 60.543 143.786l-109.731-107.838-170.269 28.379-28.379 170.269 107.838 107.838h-1.893c-52.974 0-104.055-18.919-141.893-58.649-47.295-47.297-68.107-113.513-54.864-179.73l-54.864 56.757v90.811zM200.54 63.026l225.136 225.136c0-35.945 11.35-70 28.376-100.269l-189.188-189.191c-30.27-30.269-70-45.405-109.73-45.405-41.622 0-81.351 15.136-109.73 45.405-30.27 28.379-45.405 68.11-45.405 109.731 0 39.728 15.135 79.46 45.405 109.729l253.514 253.515 64.324-64.327-255.406-253.512c-11.351-13.243-18.919-28.379-18.919-45.405 0-17.029 7.568-34.055 18.919-45.407 24.595-24.593 68.108-24.593 92.703 0zM947.837 172.757c26.488-28.379 26.488-71.893 0-100.272l-100.269-100.269c-28.379-26.486-71.893-26.486-100.269 0l-221.353 223.243c-43.514 43.514-51.081 107.838-26.486 160.81l-200.541 202.434h-117.298l-181.622 242.162 121.081 121.081 242.162-181.622v-119.188l200.541-200.541c52.974 26.486 117.298 17.026 162.703-26.488l221.35-221.35z" />
<glyph unicode="&#xe910;" glyph-name="toolbox" horiz-adv-x="1120" d="M1120 491.376v-459.376c0-39.376-32.813-70-70-70h-980c-39.375 0-70 30.624-70 70v459.376c0 19.686 6.562 37.187 19.687 50.31l98.438 98.439c13.125 13.125 30.625 21.875 50.312 21.875h111.563v175c0 56.875 45.936 105 104.998 105h350.003c56.874 0 104.998-48.125 104.998-105v-175h109.376c19.686 0 37.187-8.75 50.31-21.875l98.438-98.439c13.126-13.123 21.875-30.624 21.875-50.31zM384.998 837v-175h350.003v175h-350.003zM105 478.25v-131.248h192.5v34.998c0 17.501 15.312 34.998 34.999 34.998h35.002c17.498 0 34.998-17.498 34.998-34.998v-34.998h315.002v34.998c0 17.501 15.312 34.998 34.998 34.998h35.002c17.498 0 34.998-17.498 34.998-34.998v-34.998h192.502v131.248l-78.752 78.749h-754.687l-76.563-78.749zM1015.002 67.002v174.998h-192.502v-34.998c0-19.69-17.501-35.002-34.998-35.002h-35.002c-19.686 0-34.998 15.312-34.998 35.002v34.998h-315.002v-34.998c0-19.69-17.501-35.002-34.998-35.002h-35.002c-19.687 0-34.999 15.312-34.999 35.002v34.998h-192.5v-174.998h910.002z" />
<glyph unicode="&#xe911;" glyph-name="alarm-clock" horiz-adv-x="996" d="M497.778 824.889c239.167 0 435.556-196.389 435.556-435.556 0-1.946-1.946-1.946-1.946-1.946 0-97.22-31.11-186.667-85.555-258.611l77.778-79.721c5.834-3.888 9.722-11.665 9.722-21.387 0-7.78-3.888-15.556-9.722-21.39l-44.723-44.723c-5.831-5.831-13.611-7.777-21.387-7.777-9.722 0-17.502 1.946-21.39 7.777l-77.776 77.778c-73.89-54.443-163.334-85.555-262.502-85.555-97.22 0-186.667 31.113-258.61 85.555l-79.722-77.778c-3.889-5.831-11.667-9.722-21.389-9.722-7.778 0-15.556 3.891-21.389 9.722l-44.722 44.723c-5.833 5.834-9.722 13.611-9.722 21.39 0 9.722 3.889 17.499 9.722 21.387l77.778 79.721c-54.444 71.945-85.555 161.391-85.555 258.611v1.946c0 239.167 194.445 435.556 435.556 435.556zM497.778 47.11c188.612 0 342.221 151.669 342.221 342.224 0 188.612-153.609 342.222-342.221 342.222-190.555 0-342.222-153.61-342.222-342.222 0-190.555 151.667-342.224 342.222-342.224zM186.667 949.333c48.611-1.944 93.333-19.444 126.39-50.555l-283.89-237.223c-19.444 29.167-29.167 64.167-29.167 101.111 0 101.111 83.611 186.667 186.667 186.667zM544.444 379.611l112.779-91.389c3.888-1.943 5.831-5.834 5.831-11.665 0-3.891-1.943-7.78-3.888-9.722l-38.889-48.612c-1.943-3.888-5.831-5.834-9.722-5.834h-1.943c-3.888 0-7.78 1.946-9.722 3.888l-124.444 99.166c-15.556 11.668-23.333 29.167-23.333 48.612v258.611c0 7.78 5.834 15.556 15.553 15.556h62.225c7.777 0 15.553-7.777 15.553-15.556v-243.055zM808.889 949.333c101.111 0 186.667-85.555 186.667-186.667-1.946-36.944-11.668-71.945-31.113-101.111l-283.887 237.223c33.055 31.111 77.778 48.611 128.333 50.555z" />
<glyph unicode="&#xe912;" glyph-name="arrow-up" d="M316 280.667l-60 60 256 256 256-256-60-60-196 196z" />
<glyph unicode="&#xe913;" glyph-name="arrow-right" d="M366 230.667l196 196-196 196 60 60 256-256-256-256z" />
<glyph unicode="&#xe914;" glyph-name="arrow-left" d="M658 230.667l-60-60-256 256 256 256 60-60-196-196z" />
<glyph unicode="&#xe915;" glyph-name="arrow-down" d="M316 572.667l196-196 196 196 60-60-256-256-256 256z" />
<glyph unicode="&#xe916;" glyph-name="clock" d="M512 944c274.001 0 496-222 496-496s-221.999-496-496-496c-274 0-496 221.999-496 496s222 496 496 496zM512 48c219.998 0 400 178.001 400 400 0 220-180.002 400-400 400-222 0-400-180-400-400 0-221.999 178-400 400-400zM634.001 256l-170.001 123.998c-5.999 4.002-8 12.002-8 18.001v330.001c0 12 10.001 24 24 24h64c11.998 0 24-12 24-24v-284.002l131.998-97.997c12.002-8 14.003-21.999 6.003-34.001l-38.003-50.001c-7.996-11.998-21.999-13.999-33.997-5.999z" />
<glyph unicode="&#xe917;" glyph-name="envelope" d="M987.998 630c22.003-18 36.002-46 36.002-74v-524c0-53.999-43.998-96-96-96h-832c-54 0-96 42.001-96 96v524c0 30 12 56 34 74 2 2 28 22 62 50v88c0 52 42 96 96 96h132c46 38 112.002 96 188 96 74.001 0 141.999-58 186.001-96h133.999c52.002 0 96-44 96-96v-88c32-28 58.001-48 59.998-50zM192 768v-314.001c72-58.001 156-128 172-139.998 36-28.002 100-90.001 148-90.001 45.999 0 109.999 59.998 146.001 90.001 16 11.998 99.998 81.997 173.999 139.998v314.001h-640zM928 43.998v364.002c-77.999-61.999-192-154.001-210.001-170.001-45.999-35.998-120-109.999-205.999-109.999-88 0-164 75.998-208 109.999-18 13.999-132 106.001-208 170.001v-364.002c0-7.996 4-11.998 12-11.998h808.002c5.999 0 11.998 4.002 11.998 11.998zM352 576c-18 0-32 14-32 32v32c0 16 14 32 32 32h320c16 0 32-16 32-32v-32c0-18-16-32-32-32h-320zM704 448c0-18.001-16-32-32-32h-320c-18 0-32 13.999-32 32v32c0 16 14 32 32 32h320c16 0 32-16 32-32v-32z" />
<glyph unicode="&#xe918;" glyph-name="location" horiz-adv-x="737" d="M368.64 960c201.601 0 368.64-165.12 368.64-368.64 0-138.24-46.080-180.478-291.84-572.162-36.48-57.598-119.040-57.598-155.52 0-245.76 391.684-289.92 433.922-289.92 572.162 0 201.6 163.2 368.64 368.64 368.64zM368.64 69.12c245.76 395.518 276.48 416.641 276.48 522.24 0 151.68-124.801 276.48-276.48 276.48-153.6 0-276.48-124.8-276.48-276.48 0-105.599 30.72-130.56 276.48-522.24zM215.040 591.36c0 84.48 67.2 153.6 153.6 153.6 84.48 0 153.6-69.12 153.6-153.6 0-86.401-69.12-153.6-153.6-153.6-86.4 0-153.6 67.199-153.6 153.6z" />
<glyph unicode="&#xe919;" glyph-name="phone" horiz-adv-x="942" d="M515.842 167.039c17.277-40.321 1.917-86.401-36.483-109.437l-107.519-67.203c-34.56-23.040-80.64-19.198-111.36 11.522-240 241.918-238.080 629.759 0 869.759 30.72 30.72 76.8 34.56 111.36 11.52l107.519-67.2c38.4-23.040 53.76-69.12 36.483-109.44l-53.764-134.4c-15.36-38.398-53.758-59.521-92.158-55.679l-42.24 3.838c-13.44-55.681-11.52-113.279 0-167.039l42.24 3.838c38.4 3.842 76.798-17.277 92.158-55.677l53.764-134.402zM325.76 69.12l103.681 65.282-51.841 132.477-115.2-11.518c-48 132.477-48 230.4 0 362.879l115.2-11.52 51.841 132.48-103.681 65.28c-203.52-203.52-203.52-531.838 0-735.36zM623.362 764.16c9.597 9.6 26.878 9.6 34.558-1.92 23.040-30.72 38.4-69.12 38.4-109.44 0-42.24-15.36-80.64-38.4-111.362-7.68-11.518-24.961-11.518-34.558-1.917l-21.123 21.119c-7.68 7.68-9.597 21.12-3.838 30.72 13.439 17.28 21.119 38.4 21.119 59.52v1.92h-1.921c0 21.12-5.759 42.24-19.198 59.52-5.759 9.6-3.842 23.040 3.838 30.72l21.123 21.12zM798.081 938.88c9.601 9.6 24.961 9.6 34.558 0 67.203-76.8 109.441-176.64 109.441-286.080 0-111.362-42.238-211.198-109.441-287.998-9.597-9.601-24.957-9.601-34.558 0l-21.119 21.119c-9.601 9.601-9.601 23.040-1.921 32.637 57.598 63.361 90.239 145.922 90.239 234.242 0 86.4-32.641 168.96-90.239 232.32-7.68 9.6-7.68 23.040 1.921 32.64l21.119 21.12zM711.68 852.48c9.601 9.6 24.961 7.68 32.641-1.92 46.080-53.76 74.879-122.88 74.879-197.76 0-76.8-28.799-145.92-74.879-199.68-7.68-9.601-23.040-11.518-32.641-1.921l-23.040 23.040c-7.68 7.68-7.68 21.119 0 30.72 34.558 40.321 53.76 92.161 53.76 147.841 0 53.76-19.202 105.6-53.76 145.92-7.68 9.6-7.68 23.040 0 30.72l23.040 23.040z" />
<glyph unicode="&#xe91a;" glyph-name="search" d="M956.235 77.179c9.409-9.415 9.409-24.474 0-32.003l-43.297-43.291c-7.529-9.415-22.588-9.415-31.997 0l-227.762 227.762c-3.771 5.65-5.65 11.294-5.65 16.938v24.474c-69.647-58.35-158.118-94.118-256-94.118-216.471 0-391.529 175.056-391.529 391.529 0 214.588 175.059 391.529 391.529 391.529 214.588 0 391.529-176.941 391.529-391.529 0-97.882-37.647-188.235-96.003-256h24.474c5.644 0 11.294-3.765 16.944-7.529l227.762-227.762zM391.529 267.294c165.647 0 301.176 133.647 301.176 301.176 0 165.647-135.529 301.176-301.176 301.176-167.529 0-301.176-135.529-301.176-301.176 0-167.529 133.647-301.176 301.176-301.176z" />
<glyph unicode="&#xe91b;" glyph-name="user" d="M496 752c106 0 192-86 192-192s-86-192-192-192c-106 0-192 86-192 192s86 192 192 192zM496 464c52 0 96 42 96 96 0 52-44 96-96 96-54 0-96-44-96-96 0-54 42-96 96-96zM496 944c273.997 0 496-222 496-496 0-273.997-222.003-496-496-496-274 0-496 222.003-496 496 0 274 222 496 496 496zM496 48c98 0 190.003 36 260 96-29.997 46.003-82.003 76-140 78.003-42-12.006-82-18.003-120-18.003-40 0-80 5.997-122 18.003-58 0-110-32-140-78.003 70-60 162-96 262-96zM820 216c48 64 76 144 76 232 0 220-180 400-400 400-222 0-400-180-400-400 0-88 26-168 74-232 48 62.003 124 104 210 104 20 0 52-20 116-20 62 0 94 20 114 20 86 0 162-41.997 210-104z" />
<glyph unicode="&#xe91c;" glyph-name="gif" horiz-adv-x="1252" d="M1182.222 513.778c33.055 0 62.222-29.167 62.222-62.222v-435.556c0-35.001-29.167-62.222-62.222-62.222h-1120c-35 0-62.222 27.221-62.222 62.222v684.444c0 33.056 27.222 62.222 62.222 62.222h118.611l-60.278 42.778c-13.611 9.722-17.5 29.167-5.833 42.778l17.5 25.278c9.722 13.611 29.167 17.5 42.778 7.778l62.222-44.722-21.389 58.333c-5.833 17.5 1.944 35 17.5 40.833l29.167 11.667c15.555 5.833 35-3.889 40.834-19.444l38.886-103.056 36.946 103.056c7.777 15.555 25.279 25.278 40.832 17.5l29.167-9.722c15.556-5.833 25.279-23.333 17.499-40.833l-21.387-58.333 62.222 44.722c13.611 9.722 33.055 5.833 42.778-7.778l19.445-25.278c9.722-13.611 5.834-33.056-7.777-42.778l-60.279-42.778h120.556c33.055 0 62.222-29.167 62.222-62.222v-1.944c83.612-9.722 132.221-95.279 155.554-145.833 23.336 54.446 75.836 147.777 169.168 147.777 89.444 0 141.946-71.945 141.946-141.943 0-15.556-3.891-31.113-9.722-44.723h40.832zM1009.166 607.113c-35.001 0-68.056-54.446-85.555-93.335h103.057c3.888 1.946 9.719 5.834 13.611 7.777 13.611 13.614 17.499 27.224 17.499 36.946 0 19.445-13.611 48.612-48.612 48.612zM668.888 607.113c-34.998 0-46.666-29.167-46.666-48.612 0-9.722 1.946-23.333 15.556-36.946 3.888-1.943 9.722-5.831 15.556-7.777h101.109c-17.499 38.889-50.554 93.335-85.555 93.335zM435.556 451.556c0 33.055 27.221 62.222 62.222 62.222h38.889c-5.834 13.611-7.777 29.167-7.777 44.723 0 40.832 17.499 83.61 50.554 110.831h-486.111v-622.222h342.222v404.446zM793.333 47.11v140.001h-264.442v-140.001h264.442zM793.333 280.445v139.998h-264.442v-139.998h264.442zM838.056 513.778v0zM1151.113 47.11v140.001h-264.445v-140.001h264.445zM1151.113 280.445v139.998h-264.445v-139.998h264.445z" />
<glyph unicode="&#xe91d;" glyph-name="diamon" horiz-adv-x="1166" d="M930.668 949.333c7.777 0 13.611-3.889 19.442-11.667l194.446-285.834c3.888-7.777 3.888-19.445-1.946-27.221l-536.667-663.057c-9.722-11.665-27.221-11.665-36.944 0l-536.666 663.057c-5.833 7.777-5.833 19.445 0 27.221l194.445 285.834c3.889 7.778 11.666 11.667 19.444 11.667h684.446zM891.779 856h-110.834l101.111-186.668h134.167l-124.444 186.668zM499.001 856l-99.169-186.668h377.225l-101.111 186.668h-176.944zM283.167 856l-122.5-186.668h132.223l101.111 186.668h-110.834zM199.555 576l233.335-311.111-134.167 311.111h-99.168zM399.832 576l188.612-474.445 186.667 474.445h-375.279zM743.999 264.889l231.39 311.111h-99.166l-132.224-311.111z" />
<glyph unicode="&#xe91e;" glyph-name="email" horiz-adv-x="1138" d="M311.111 78.222c48.612 0 99.166 42.778 124.444 62.222 124.444 85.555 161.388 116.668 186.667 136.112v-260.557c0-35.001-29.167-62.222-62.222-62.222h-497.778c-35 0-62.222 27.221-62.222 62.222v260.557c23.333-19.445 62.222-50.557 186.667-136.112 23.333-19.445 73.889-62.222 124.444-62.222zM560 451.556c33.055 0 62.222-29.167 62.222-62.222v-38.889c-50.554-36.944-44.723-36.944-225.556-167.222-17.499-5.834-54.446-42.778-85.555-42.778-31.111 0-70 36.944-87.5 48.612-180.833 130.278-175 130.278-223.611 169.168v31.11c0 33.055 27.222 62.222 62.222 62.222h497.778zM1057.778 638.222c33.055 0 62.222-29.167 62.222-62.222v-373.333c0-35.001-29.167-62.222-62.222-62.222h-373.333v260.557h-1.946c-5.831 62.222-58.331 112.777-122.499 112.777h-186.667v62.222c0 33.055 27.221 62.222 62.222 62.222h622.222zM995.556 389.333v124.444h-124.444v-124.444h124.444zM311.111 576v-62.222h-186.667v373.333c0 33.056 27.222 62.222 62.222 62.222h622.222c33.055 0 62.222-29.167 62.222-62.222v-186.667h-435.556c-69.999 0-124.444-56.388-124.444-124.444z" />
<glyph unicode="&#xe91f;" glyph-name="device" horiz-adv-x="1252" d="M1174.446 700.444c36.944 0 69.999-33.055 69.999-69.999v-606.669c0-38.886-33.055-69.999-69.999-69.999h-357.78c-38.886 0-69.999 31.113-69.999 69.999v606.669c0 36.944 31.113 69.999 69.999 69.999h357.78zM1120 78.222v497.778h-248.889v-497.778h248.889zM248.889 824.889v-435.556h435.556v-186.667h-561.944c-68.056 0-122.5 54.446-122.5 124.444v31.113c0 15.553 13.611 31.11 31.111 31.11h93.333v466.667c0 50.555 40.833 91.389 91.389 93.333h686.39c50.554-1.944 91.386-42.778 93.332-93.333v-93.333h-124.444v62.222h-622.222z" />
<glyph unicode="&#xe920;" glyph-name="cart" horiz-adv-x="1138" d="M1071.388 824.889c31.113 0 52.5-29.167 46.666-58.333l-87.498-404.444c-5.834-21.39-23.333-35.001-46.669-35.001h-606.666l17.502-93.332h548.332c31.11 0 52.5-29.167 46.666-58.334l-1.943-7.78c23.333-23.333 38.889-54.443 38.889-89.444 0-69.999-56.391-124.444-124.444-124.444-70.002 0-124.444 54.446-124.444 124.444 0 21.39 5.831 42.778 15.553 62.222h-281.944c9.722-19.445 17.502-40.832 17.502-62.222 0-69.999-56.391-124.444-124.444-124.444-70.002 0-124.446 54.446-124.446 124.444 0 33.055 11.666 62.222 33.057 85.555l-134.168 692.223h-155.555c-13.611 0-23.333 9.722-23.333 23.333v46.667c0 11.667 9.722 23.333 23.333 23.333h194.444c21.389 0 40.833-17.5 44.722-38.889l17.5-85.555h791.388zM404.446 31.556c25.276 0 46.666 19.445 46.666 46.666 0 25.279-21.39 46.666-46.666 46.666-27.224 0-46.669-21.387-46.669-46.666 0-27.221 19.445-46.666 46.669-46.666zM902.224 31.556c25.276 0 46.666 19.445 46.666 46.666 0 25.279-21.39 46.666-46.666 46.666-27.224 0-46.669-21.387-46.669-46.666 0-27.221 19.445-46.666 46.669-46.666zM946.944 420.443l68.056 311.113h-717.5l60.277-311.113h589.167z" />
<glyph unicode="&#xe921;" glyph-name="folder" horiz-adv-x="1327" d="M1202.965 765.63c67.406 0 124.443-57.037 124.443-124.444v-580.743c0-70-57.037-124.443-124.443-124.443h-1078.52c-70 0-124.444 54.443-124.444 124.443v746.669c0 67.407 54.445 124.444 124.444 124.444h414.817l165.926-165.926h497.778zM954.072 330.073v41.483c0 20.738-20.738 41.48-41.48 41.48h-497.778c-23.332 0-41.481-20.742-41.481-41.48v-41.483c0-23.332 18.149-41.48 41.481-41.48h497.778c20.742 0 41.48 18.148 41.48 41.48z" />
<glyph unicode="&#xe922;" glyph-name="code" horiz-adv-x="1166" d="M483.445-46.222l-73.89 21.39c-9.722 1.943-13.611 11.665-11.665 19.442l274.167 943.057c1.943 7.778 11.665 11.667 19.442 9.722l75.836-21.389c7.777-1.944 11.665-11.667 9.722-19.445l-274.167-943.055c-1.946-7.777-9.722-11.668-19.445-9.722zM322.057 189.056c-5.834-5.834-15.556-5.834-21.39 0l-268.333 250.832c-5.833 5.834-5.833 15.556 0 21.39l268.333 252.778c5.834 5.833 15.556 3.889 21.39-1.944l52.5-56.39c5.831-5.831 5.831-15.553 0-21.387l-206.112-182.778 206.112-184.721c5.831-5.834 5.831-15.556 0-21.39l-52.5-56.388zM874.277 189.056c-5.834-5.834-15.553-5.834-21.387 0l-52.5 56.388c-5.834 5.834-5.834 15.556 0 21.39l206.111 184.721-206.111 182.778c-5.834 5.834-5.834 15.556 0 21.387l52.5 56.39c5.834 5.833 15.553 7.778 21.387 1.944l268.334-252.778c5.834-5.834 5.834-15.556 0-21.39l-268.334-250.832z" />
<glyph unicode="&#xe923;" glyph-name="chart-network" horiz-adv-x="1252" d="M1104.444 233.779c75.833 0 140.001-64.168 140.001-140.001 0-77.778-64.168-140.001-140.001-140.001-77.776 0-140.001 62.222-140.001 140.001 0 5.834 0 11.665 1.946 17.499l-161.388 91.389c-38.889-38.889-93.335-62.222-151.666-62.222-120.556 0-217.779 97.223-217.779 217.779 0 69.999 33.055 132.221 85.555 171.11l-66.111 139.998c-1.946 0-3.888-1.943-3.888-1.943-77.778 0-140.001 64.166-140.001 140 0 77.778 62.222 140 140.001 140 75.833 0 139.998-62.222 139.998-140 0-40.833-19.442-77.778-48.609-103.056l62.222-134.167c15.553 1.946 31.11 5.834 48.612 5.834 118.61 0 217.776-99.166 217.776-217.776 0-27.224-5.834-52.503-15.556-75.836l151.669-87.498c25.276 23.333 58.331 38.889 97.22 38.889zM451.112 762.667c25.276 0 46.666 19.444 46.666 46.667 0 25.278-21.39 46.667-46.666 46.667-27.224 0-46.666-21.389-46.666-46.667 0-27.222 19.442-46.667 46.666-46.667zM653.335 233.779c68.053 0 124.444 54.443 124.444 124.444 0 68.053-56.391 124.444-124.444 124.444-70.002 0-124.444-56.391-124.444-124.444 0-70.002 54.443-124.444 124.444-124.444zM1104.444 47.11c25.279 0 46.669 19.445 46.669 46.669 0 25.276-21.39 46.666-46.669 46.666-27.221 0-46.666-21.39-46.666-46.666 0-27.224 19.445-46.669 46.666-46.669zM997.501 554.61l-93.335-69.999-36.944 48.612 93.332 69.999 36.946-48.612zM1120 576c-69.999 0-124.444 54.446-124.444 124.444 0 68.056 54.446 124.444 124.444 124.444 68.056 0 124.444-56.389 124.444-124.444 0-69.999-56.388-124.444-124.444-124.444zM295.555 327.111v62.222h93.335v-62.222h-93.335zM124.444 482.668c68.056 0 124.444-56.391 124.444-124.444 0-70.002-56.389-124.444-124.444-124.444-70 0-124.444 54.443-124.444 124.444 0 68.053 54.444 124.444 124.444 124.444z" />
<glyph unicode="&#xe924;" glyph-name="folders" horiz-adv-x="1252" d="M1151.113 824.889c50.554 0 93.332-42.778 93.332-93.333v-435.557c0-52.5-42.778-93.332-93.332-93.332h-155.557v-155.557c0-52.5-42.778-93.332-93.332-93.332h-808.89c-52.5 0-93.333 40.832-93.333 93.332v560.003c0 50.554 40.833 93.332 93.333 93.332h155.556v155.556c0 50.555 40.832 93.333 93.332 93.333h283.89c17.502 0 33.055-7.778 44.723-19.444l106.945-105h373.333zM902.224 47.11v155.557h-560.003c-52.5 0-93.332 40.832-93.332 93.332v311.114h-155.556v-560.003h808.89zM1151.113 295.999v435.557h-386.947c-17.499 0-33.055 5.833-44.72 17.5l-105 106.945h-272.225v-560.001h808.892z" />
<glyph unicode="&#xe925;" glyph-name="images" horiz-adv-x="1280" d="M1050 102v-34.998c0-59.066-48.125-105.002-105.002-105.002h-839.998c-59.062 0-105 45.936-105 105.002v560c0 56.873 45.938 104.998 105 104.998h35v-104.998h-21.875c-8.75 0-13.125-6.563-13.125-13.126v-533.75c0-8.749 4.375-13.123 13.125-13.123h813.75c6.563 0 13.123 4.374 13.123 13.123v21.875h105.002zM1141.875 837h-813.75c-8.75 0-13.125-6.563-13.125-13.125v-533.75c0-8.749 4.375-13.126 13.125-13.126h813.75c6.563 0 13.126 4.378 13.126 13.126v533.75c0 6.563-6.563 13.125-13.126 13.125zM1155.002 942c56.874 0 104.998-48.125 104.998-105v-560.002c0-59.062-48.125-104.998-104.998-104.998h-840.002c-59.062 0-105 45.936-105 104.998v560.002c0 56.875 45.938 105 105 105h840.002zM577.501 697c0-50.313-39.376-87.499-87.501-87.499-50.314 0-87.501 37.187-87.501 87.499 0 48.125 37.187 87.5 87.501 87.5 48.125 0 87.501-39.375 87.501-87.5zM420 487.002l85.312 85.312c10.938 10.938 26.25 10.938 37.187 0l87.501-85.312 225.312 225.311c10.938 10.937 26.25 10.937 37.187 0l157.501-155.314v-174.998h-630v105.002z" />
<glyph unicode="&#xe926;" glyph-name="maintenance-1" d="M70.159 777.376c1.13-1.882 2.634-3.512 4.42-4.788l78.12-55.8 235.984-235.989 22.628 22.63-236.915 236.924c-0.624 0.622-1.297 1.192-2.014 1.704l-76.496 54.636-59.742 99.572 27.588 27.588 99.57-59.744 54.634-76.488c0.512-0.717 1.083-1.391 1.706-2.014l60.922-60.921 22.633 22.627-59.99 59.984-55.8 78.12c-1.276 1.786-2.906 3.29-4.788 4.42l-113.134 67.882c-3.059 1.837-6.644 2.598-10.186 2.163s-6.836-2.041-9.36-4.563l-45.256-45.26c-2.522-2.524-4.128-5.819-4.563-9.36s0.327-7.127 2.163-10.186l67.876-113.138zM308.622 696.552l22.624 22.624 147.861-147.859-22.624-22.624-147.861 147.859zM777.853 361.547l-73.801 31.635-22.985 45.973-28.622-14.311 25.6-51.218c1.691-3.381 4.526-6.058 7.999-7.55l76.365-32.727 138.272-138.272 22.628 22.63-140.452 140.45c-1.438 1.438-3.136 2.59-5.004 3.391zM953.706 187.315l-22.628-22.628 32.8-32.8c9.004-8.895 16.159-19.483 21.056-31.152 4.897-11.671 7.437-24.194 7.475-36.85s-2.426-25.195-7.252-36.894c-4.826-11.701-11.917-22.33-20.867-31.28s-19.579-16.040-31.28-20.865c-11.699-4.826-24.237-7.291-36.894-7.252s-25.179 2.58-36.85 7.477c-11.669 4.895-22.257 12.051-31.152 21.056l-201.462 201.459-32.729 76.363c-1.493 3.475-4.167 6.31-7.55 8.001l-51.216 25.6-14.311-28.62 45.973-22.988 31.635-73.801c0.803-1.873 1.957-3.573 3.4-5.013l203.637-203.639c24.005-24.005 56.563-37.49 90.51-37.49 33.949 0 66.505 13.485 90.51 37.49s37.49 56.563 37.49 90.51c0 33.947-13.485 66.505-37.49 90.51l-32.804 32.804zM771.538 236.41c-9.487-0.007-18.757-2.824-26.642-8.096s-14.031-12.764-17.663-21.527c-3.63-8.763-4.583-18.405-2.74-27.709 1.845-9.305 6.403-17.854 13.105-24.569l135.764-135.764c9.013-8.979 21.22-14.020 33.94-14.020 12.723 0 24.926 5.040 33.94 14.020 8.988 9.007 14.038 21.215 14.038 33.94 0 12.727-5.049 24.933-14.038 33.942l-135.762 135.773c-4.451 4.465-9.742 8.001-15.569 10.406-5.825 2.405-12.072 3.63-18.373 3.604zM918.617 41.372c-3.001-2.997-7.070-4.679-11.314-4.679-4.242 0-8.31 1.682-11.314 4.679l-135.764 135.764c-3.001 3.001-4.688 7.072-4.685 11.314 0 4.244 1.686 8.315 4.688 11.314 2.999 3.001 7.070 4.685 11.314 4.685s8.313-1.686 11.312-4.688l135.762-135.764c2.997-3.001 4.681-7.070 4.681-11.312s-1.682-8.31-4.679-11.314zM765.151 588.001c31.673-11.762 65.889-14.957 99.191-9.266 33.303 5.693 64.517 20.070 90.485 41.684s45.777 49.696 57.421 81.413c11.644 31.715 14.716 65.943 8.902 99.225-0.564 3.248-2.119 6.243-4.451 8.574l-26.274 26.284c-3.001 3-7.070 4.686-11.314 4.686-4.242 0-8.313-1.685-11.312-4.686l-96.167-96.166-59.401 8.484-8.483 59.4 96.17 96.168c1.486 1.486 2.665 3.25 3.468 5.191 0.806 1.941 1.22 4.022 1.22 6.124s-0.414 4.182-1.22 6.124c-0.803 1.942-1.982 3.706-3.468 5.191l-26.274 26.268c-2.332 2.33-5.325 3.884-8.572 4.448-33.282 5.811-67.509 2.738-99.223-8.907s-59.797-31.453-81.408-57.421c-21.613-25.968-35.992-57.179-41.686-90.481s-2.501-67.517 9.257-99.191l-295.322-295.322 22.628-22.624 302.808 302.799c2.278 2.278 3.816 5.188 4.41 8.354 0.596 3.165 0.223 6.435-1.070 9.384-11.455 26.121-15.72 54.827-12.354 83.149 3.368 28.322 14.243 55.23 31.501 77.937s40.271 40.39 66.658 51.216c26.385 10.826 55.187 14.403 83.42 10.36l11.284-11.282-90.51-90.518c-1.757-1.757-3.079-3.898-3.864-6.254s-1.010-4.863-0.66-7.322l11.312-79.199c0.489-3.429 2.078-6.606 4.526-9.052 2.448-2.448 5.625-4.037 9.052-4.526l79.201-11.312c2.458-0.35 4.965-0.125 7.32 0.66s4.496 2.107 6.256 3.864l90.51 90.509 11.282-11.282c4.039-28.231 0.457-57.028-10.37-83.41s-28.506-49.393-51.211-66.651c-22.703-17.256-49.607-28.133-77.926-31.501-28.317-3.37-57.021 0.887-83.142 12.336-2.949 1.293-6.219 1.666-9.384 1.070s-6.076-2.132-8.354-4.41l-408.135-408.121c-2.276-2.276-3.814-5.188-4.41-8.351-0.596-3.165-0.223-6.438 1.072-9.387 11.453-26.119 15.72-54.827 12.352-83.149-3.366-28.322-14.24-55.228-31.498-77.936s-40.271-40.391-66.658-51.216c-26.387-10.827-55.187-14.404-83.421-10.361l-11.284 11.282 90.511 90.517c1.754 1.757 3.079 3.898 3.864 6.256 0.785 2.355 1.010 4.863 0.66 7.32l-11.312 79.201c-0.489 3.427-2.078 6.604-4.526 9.052s-5.625 4.037-9.052 4.526l-79.2 11.312c-2.459 0.35-4.966 0.125-7.322-0.66s-4.497-2.107-6.254-3.864l-90.506-90.515-11.29 11.282c-4.038 28.231-0.458 57.028 10.368 83.41 10.827 26.385 28.507 49.395 51.212 66.651 22.705 17.258 49.608 28.133 77.927 31.503 28.318 3.368 57.022-0.89 83.143-12.338 2.949-1.293 6.219-1.666 9.384-1.070s6.076 2.132 8.354 4.41l78.8 78.809-22.628 22.628-71.323-71.325c-31.673 11.762-65.889 14.957-99.193 9.266-33.303-5.693-64.516-20.070-90.485-41.684s-45.776-49.696-57.421-81.413c-11.645-31.714-14.715-65.943-8.901-99.226 0.566-3.247 2.12-6.242 4.45-8.574l26.276-26.274c3.001-2.999 7.070-4.685 11.313-4.685s8.313 1.686 11.313 4.685l96.168 96.167 59.4-8.486 8.484-59.399-96.156-96.17c-1.486-1.484-2.665-3.249-3.469-5.191s-1.218-4.021-1.218-6.124c0-2.1 0.414-4.182 1.218-6.124s1.983-3.705 3.469-5.191l26.274-26.269c2.331-2.33 5.325-3.884 8.572-4.449 33.282-5.809 67.508-2.737 99.223 8.909 31.714 11.644 59.795 31.453 81.408 57.419 21.613 25.969 35.992 57.18 41.686 90.483 5.693 33.3 2.501 67.516-9.257 99.189l393.155 393.148z" />
<glyph unicode="&#xe927;" glyph-name="project-1" d="M927.999 719.999v208.001c0 8.832-7.15 16-15.999 16h-576c-8.847 0-15.999-7.168-15.999-16v-48h-48.001c-8.847 0-15.999-7.168-15.999-16v-16h-48c-8.848 0-16-7.168-16-16v-112.001h-96c-44.112 0-80-35.888-80-79.999v-607.999c0-44.114 35.888-80.002 80-80.002h831.999c44.114 0 80.002 35.888 80.002 80.002v607.999c0 44.112-35.888 79.999-80.002 79.999zM975.999 640v-192.416c-13.408 10.16-29.919 16.416-48.001 16.416v224.001c26.465 0 48.001-21.536 48.001-48.001zM896 912v-448h-543.999v448h543.999zM320 848v-384h-32.001v384h32.001zM256 816v-352.001h-15.999c-5.473 0-10.832-0.56-16.001-1.616v353.616h32zM96-15.999c-26.464 0-48 21.536-48 48.001v607.999c0 26.465 21.536 48.001 48 48.001h96v-240.417c-19.312-14.623-32-37.567-32-63.584v-351.999c0-26.465-21.536-48.001-48-48.001h-16zM175.584-15.999c10.16 13.408 16.416 29.919 16.416 48.001v351.999c0 26.465 21.536 48.001 48.001 48.001h32.415c-10.16-13.408-16.416-29.921-16.416-48.001v-351.999c0-26.465-21.536-48.001-48-48.001h-32.416zM975.999 32.001c0-26.465-21.536-48.001-48.001-48.001h-656.416c10.16 13.408 16.416 29.919 16.416 48.001v351.999c0 26.465 21.538 48.001 48.001 48.001h591.999c26.465 0 48.001-21.536 48.001-48.001v-351.999zM944.001 112.001h-192c-8.85 0-15.999-7.152-15.999-16.002v-63.998c0-8.85 7.15-16.002 15.999-16.002h192c8.847 0 15.999 7.152 15.999 16.002v63.998c0 8.85-7.152 16.002-15.999 16.002zM927.999 48.001h-159.999v31.999h159.999v-31.999zM688.001 48.001h31.999v-32.001h-31.999v32.001zM496.001 655.999h-64c-8.85 0-16.002-7.168-16.002-15.999v-143.999c0-8.831 7.152-16.002 16.002-16.002h64c8.847 0 15.999 7.17 15.999 16.002v143.999c0 8.831-7.152 15.999-15.999 15.999zM480.001 512h-32.001v112.001h32.001v-112.001zM527.999 768v-271.999c0-8.834 7.152-16.002 15.999-16.002h64.002c8.847 0 15.999 7.168 15.999 16.002v271.999c0 8.832-7.152 16-15.999 16h-64.002c-8.847 0-15.999-7.168-15.999-16zM560.001 752h31.999v-240h-31.999v240zM655.999 479.999h64c8.85 0 16.002 7.168 16.002 16.002v223.999c0 8.834-7.152 16.001-16.002 16.001h-64c-8.847 0-15.999-7.167-15.999-16.001v-223.999c0-8.834 7.152-16.002 15.999-16.002zM671.999 704h32.001v-192h-32.001v192zM768 479.999h64c8.847 0 15.999 7.17 15.999 16.002v367.999c0 8.832-7.152 16-15.999 16h-64c-8.847 0-15.999-7.168-15.999-16v-367.999c0-8.831 7.152-16.002 15.999-16.002zM783.999 848h32.001v-336h-32.001v336zM368.001 896h95.999v-32h-95.999v32zM496.001 896h95.999v-32h-95.999v32zM368.001 848h223.999v-32h-223.999v32z" />
<glyph unicode="&#xe928;" glyph-name="write-1" d="M945.295 882.561c-23.996 23.938-56.507 37.381-90.401 37.381s-66.405-13.443-90.401-37.381l-416.959-416.959c-2.421-2.419-4.326-5.304-5.6-8.481l-90.080-236.96c-1.559-4.324-1.852-9.004-0.844-13.489s3.275-8.59 6.533-11.833c3.259-3.24 7.375-5.486 11.867-6.472 4.49-0.983 9.168-0.667 13.485 0.915l236.799 90.080c3.143 1.176 5.982 3.036 8.322 5.441l417.28 416.959c23.937 23.996 37.381 56.506 37.381 90.4s-13.444 66.404-37.381 90.4zM497.295 322.56l-181.441-69.439 69.12 182.079 335.041 334.721 112.959-112.001-335.679-335.36zM912.015 736.001l-44.801-44.801-112.961 112.001 44.162 44.8c11.196 11.098 25.42 18.641 40.887 21.682 15.469 3.041 31.491 1.444 46.055-4.59s27.020-16.236 35.804-29.326c8.786-13.089 13.508-28.482 13.574-44.247-0.086-20.753-8.233-40.661-22.719-55.52zM862.244 456.001c-3.149-0.241-6.219-1.106-9.032-2.544-2.81-1.438-5.309-3.42-7.35-5.832-2.039-2.412-3.579-5.204-4.528-8.217-0.951-3.011-1.295-6.183-1.010-9.328 0-9.601 1.12-19.52 1.12-29.28-0.057-84.485-28.504-166.5-80.775-232.874s-125.331-113.254-207.449-133.113c-82.116-19.861-168.525-11.548-245.35 23.604-76.825 35.151-139.607 95.1-178.265 170.223-27.418 52.952-41.686 111.728-41.6 171.358-0.042 49.525 9.671 98.573 28.584 144.343s46.657 87.368 81.646 122.416c34.988 35.048 76.54 62.862 122.276 81.853 45.739 18.991 94.77 28.787 144.295 28.829 10.24 0 18.878 0 26.72-0.96 6.365-0.573 12.698 1.406 17.604 5.502 4.904 4.096 7.983 9.973 8.556 16.338s-1.406 12.697-5.502 17.603c-4.096 4.906-9.974 7.984-16.338 8.557-9.28 0.8-19.36 1.12-31.039 1.12-83.991 0.031-166.106-24.836-235.968-71.459s-124.334-112.91-156.534-190.482c-32.2-77.574-40.682-162.95-24.374-245.341 16.308-82.393 56.675-158.101 115.997-217.557 59.323-59.458 134.94-99.995 217.295-116.49 82.355-16.493 167.752-8.203 245.396 23.821s144.054 86.348 190.835 156.103c46.781 69.757 71.832 151.816 71.992 235.804 0 11.2 0 22.401-1.281 33.28-0.139 3.22-0.928 6.376-2.321 9.28-1.393 2.906-3.359 5.498-5.782 7.621-2.421 2.123-5.25 3.734-8.313 4.735-3.061 0.999-6.294 1.368-9.503 1.085z" />
<glyph unicode="&#xe929;" glyph-name="star" d="M460.444 871.111c21.333 42.667 81.778 40.889 101.333 0l117.333-236.444 259.556-37.333c46.222-7.111 64-64 30.219-97.778l-186.664-183.111 44.442-257.781c7.111-46.217-42.667-81.772-83.553-60.439l-231.111 122.664-232.889-122.664c-40.889-21.333-90.667 14.222-83.556 60.439l44.444 257.781-186.667 183.111c-33.778 33.778-16 90.667 30.222 97.778l261.333 37.333 115.556 236.444z" />
<glyph unicode="&#xe92a;" glyph-name="mail" horiz-adv-x="975" d="M940.954 621.333c20.953-17.143 34.284-41.905 34.284-70.476v-499.048c0-51.429-41.906-91.429-91.429-91.429h-792.381c-51.429 0-91.429 39.999-91.429 91.429v499.048c0 28.571 11.429 53.333 32.381 70.476 7.619 5.714 211.429 169.524 257.143 207.619 43.81 34.285 114.286 106.667 198.095 106.667 81.905 0 154.288-74.286 196.189-106.667 43.813-36.191 247.623-200 257.146-207.619zM883.81 63.239v481.904c0 3.809-1.907 7.619-5.715 9.524-30.476 24.762-207.618 165.714-251.426 201.905-34.289 26.667-95.242 87.619-139.049 87.619-45.714 0-106.667-59.048-140.952-87.619-43.81-36.19-220.953-177.143-251.429-201.905-3.809-1.905-3.809-5.714-3.809-9.524v-481.904c0-7.621 3.809-11.43 11.429-11.43h769.522c5.715 0 11.43 3.808 11.43 11.43zM822.857 419.43c7.617-9.523 5.715-24.766-3.808-32.383-55.237-43.808-114.288-89.522-135.241-108.573-43.808-34.284-114.283-104.76-196.189-104.76-83.81 0-156.19 72.382-198.095 104.76-20.953 17.145-80 64.766-135.238 108.573-9.524 7.617-11.428 22.86-3.809 32.383l30.476 36.186c7.619 9.528 20.952 11.43 32.381 1.907 53.333-43.808 110.476-89.522 133.334-106.667 34.285-26.668 95.238-85.714 140.952-85.714 43.808 0 104.76 57.144 139.049 85.714 22.855 17.145 79.999 62.859 133.33 106.667 11.43 9.523 24.766 7.621 32.383-1.907l30.476-36.186z" />
<glyph unicode="&#xe92b;" glyph-name="gift" d="M927.998 666.88c52.003 0 96.002-44 96.002-96v-256c0-18.002-15.999-31.998-31.998-31.998h-32.002v-216.003c0-57.999-48.001-104.002-106-104.002h-686c-58 0-104 46.002-104 104.002v216.003h-32c-18 0-32 13.996-32 31.998v256c0 52 42 96 96 96h56c-14 24-20 50-20 80 0 96 78 176 176 176 82 0 135.998-44 205.999-138 68.002 94 121.999 138 206 138 96.002 0 176.001-80 176.001-176 0-30-7.999-56-22-80h53.998zM463.999 58.88v512h-367.999v-192h288v-95.998h-224v-216.003c0-3.998 4-7.999 8-7.999h295.999zM306 666.88h174.002l-4.002 6c-94 138-126 154-170 154s-80-36-80-80c0-46 36-80 80-80zM549.999 672.88l-3.998-6h173.998c43.999 0 79.999 34 79.999 80 0 44-36 80-79.999 80s-75.997-16-170-154zM927.998 378.88v192h-367.997v-512h293.999c6.001 0 10.002 4.002 10.002 7.999v216.003h-224.002v95.998h287.998z" />
<glyph unicode="&#xe92c;" glyph-name="laptop-code" horiz-adv-x="1260" d="M1214.771 278.154c15.384 0 30.767-15.384 30.767-30.771v-92.306c0-101.923-84.614-184.615-184.615-184.615h-861.538c-101.923 0-184.615 82.692-184.615 184.615v92.306c0 15.388 13.462 30.771 30.769 30.771h92.308v553.846c0 67.308 53.846 123.077 123.077 123.077h738.462c67.308 0 123.077-55.769 123.077-123.077v-553.846h92.31zM230.154 832v-553.846h799.998v553.846c0 15.384-15.384 30.769-30.767 30.769h-738.462c-17.308 0-30.769-15.385-30.769-30.769zM1153.229 155.077v30.771h-348.073c-11.54-19.232-30.771-30.771-51.925-30.771h-246.154c-23.075 0-42.307 11.54-53.847 30.771h-346.153v-30.771c0-51.925 40.385-92.306 92.308-92.306h861.538c49.999 0 92.306 40.381 92.306 92.306zM547.462 451.23c-11.54-11.536-30.771-11.536-42.307 0l-113.463 111.541c-11.539 11.537-11.539 32.691 0 44.229l113.463 111.538c11.536 11.539 30.767 11.539 42.307 0l21.153-21.154c13.462-11.539 13.462-32.692 0-44.231l-67.308-67.308 67.308-69.23c13.462-11.54 13.462-32.693 0-44.233l-21.153-21.153zM689.77 472.383c-13.462 11.54-13.462 32.693 0 44.233l67.308 69.23-67.308 67.308c-13.462 11.539-13.462 32.692 0 44.231l21.153 21.154c11.54 11.539 30.767 11.539 42.307 0l113.463-111.538c11.536-11.539 11.536-32.692 0-44.229l-113.463-111.541c-11.54-11.536-30.767-11.536-42.307 0l-21.153 21.153z" />
<glyph unicode="&#xe92d;" glyph-name="tiktok" d="M534.613 959.147c55.893 0.853 111.36 0.427 166.827 0.853 3.413-65.28 26.88-131.84 74.667-177.92 47.787-47.36 115.2-69.12 180.907-76.373v-171.947c-61.44 2.133-123.307 14.933-179.2 41.387-24.32 11.093-46.933 25.173-69.12 39.68-0.427-124.587 0.427-249.173-0.853-373.333-3.413-59.733-23.040-119.040-57.6-168.107-55.893-81.92-152.747-135.253-252.16-136.96-61.013-3.413-122.027 13.227-174.080 43.947-86.187 50.773-146.773 143.787-155.733 243.627-0.853 21.333-1.28 42.667-0.427 63.573 7.68 81.067 47.787 158.72 110.080 211.627 70.827 61.44 169.813 90.88 262.4 73.387 0.853-63.147-1.707-126.293-1.707-189.44-42.24 13.653-91.733 9.813-128.853-15.787-26.88-17.493-47.36-44.373-58.027-74.667-8.96-21.76-6.4-45.653-5.973-68.693 10.24-69.973 77.653-128.853 149.333-122.453 47.787 0.427 93.44 28.16 118.187 68.693 8.107 14.080 17.067 28.587 17.493 45.227 4.267 76.373 2.56 152.32 2.987 228.693 0.427 171.947-0.427 343.467 0.853 514.987z" />
<glyph unicode="&#xe92e;" glyph-name="rocket-launch" d="M106.692 276.232c76.923 78.844 180.769 82.692 251.923 13.462 69.231-71.156 65.384-175.002-13.462-251.924-48.077-49.999-173.077-73.078-305.769-67.308-5.769 132.691 17.308 257.694 67.308 305.77zM264.385 114.692c25 26.923 26.923 61.538 3.846 84.614-23.077 23.079-57.693 21.157-84.615-3.844-15.385-17.31-23.077-57.695-21.154-101.923 44.231-1.922 84.615 5.77 101.923 21.153zM1010.538 916.615c13.462-61.538 13.462-109.616 11.54-157.692 0-198.078-105.771-317.307-246.154-405.769v-201.925c0-30.767-21.153-67.304-50.003-82.692l-190.381-94.228c-5.77-1.926-13.462-3.848-19.232-3.848-26.923 0-46.155 19.232-46.155 46.155v199.999c0 100.001-82.692 184.615-184.615 184.615h-200c-26.923 0-46.154 19.232-46.154 46.155 0 5.77 1.923 13.462 3.846 19.232l96.154 190.383c13.462 28.846 50 51.923 80.769 51.923h201.923c88.462 138.461 207.691 246.154 405.768 246.154 48.077 0 96.154 0 157.692-13.462 11.54-3.846 21.153-13.462 25.001-25zM727.847 430.076c142.308 90.384 201.921 190.386 201.921 328.847 1.922 32.692 1.922 63.462-3.844 98.077-34.615 5.769-63.464 5.769-98.080 5.769-140.383 0-238.462-61.538-328.846-203.846-30.767-50-13.462-15.385-99.998-192.306 61.538-26.923 109.615-75 136.539-136.539 176.92 86.536 142.304 69.23 192.307 99.998zM747.079 755.077c42.307-1.923 76.922-34.616 76.922-76.923 0-44.231-34.615-76.923-76.922-76.923-44.233 0-76.926 32.692-76.926 76.923 0 42.308 32.693 75 76.926 76.923z" />
<glyph unicode="&#xe92f;" glyph-name="play" horiz-adv-x="843" d="M774.59 527.882c54.706-33.529 54.706-112.941 0-146.471l-621.178-367.058c-56.471-33.533-127.059 7.060-127.059 74.114v734.121c0 72.353 75.883 102.353 127.059 72.353l621.178-367.059z" />
<glyph unicode="&#xe930;" glyph-name="heart" horiz-adv-x="1152" d="M988 834c125.997-108 132-300 20-416l-388-400.003c-24-25.997-66-25.997-90 0l-388 400.003c-112 116-106 308 20 416 110 94 274 76 374-28l40-40 38 40c102 104 264.003 122 374 28z" />
<glyph unicode="&#xe931;" glyph-name="check" d="M0 409.6l102.4 102.4 256-256 563.2 563.2 102.4-102.4-665.6-665.6z" />
<glyph unicode="&#xe932;" glyph-name="view" horiz-adv-x="1103" d="M68.923 592v267.077c0 28 21.539 51.692 51.692 51.692h267.077c12.923 0 25.846-12.923 25.846-25.846v-51.693c0-15.076-12.923-25.846-25.846-25.846h-215.385v-215.385c0-15.076-12.923-25.846-25.846-25.846h-51.693c-15.076 0-25.846 10.769-25.846 25.846zM689.231 884.923c0 12.923 10.769 25.846 25.846 25.846h267.081c27.995 0 51.688-23.692 51.688-51.692v-267.077c0-15.076-12.926-25.846-25.844-25.846h-51.696c-15.076 0-25.844 10.769-25.844 25.846v215.385h-215.385c-15.076 0-25.846 10.769-25.846 25.846v51.693zM1008.002 290.462c12.918 0 25.844-12.923 25.844-25.846v-267.081c0-30.153-23.694-51.688-51.688-51.688h-267.081c-15.076 0-25.846 10.768-25.846 25.844v51.696c0 12.918 10.769 25.844 25.846 25.844h215.385v215.385c0 12.923 10.768 25.846 25.844 25.846h51.696zM413.538-28.31c0-15.076-12.923-25.844-25.846-25.844h-267.077c-30.154 0-51.692 21.536-51.692 51.688v267.081c0 12.923 10.769 25.846 25.846 25.846h51.693c12.923 0 25.846-12.923 25.846-25.846v-215.385h215.385c12.923 0 25.846-12.926 25.846-25.844v-51.696z" />
<glyph unicode="&#xe933;" glyph-name="data" horiz-adv-x="1365" d="M1270.665 672.334l-224-224c-18.662-18.667-48.998-4.667-48.998 18.667v170.333h-884.333c-16.333 0-28 11.667-28 28v55.999c0 14.001 11.667 28 28 28h884.333v168c0 23.333 30.336 37.333 48.998 18.667l224-224c11.665-11.667 11.665-28 0-39.666zM92.333 224.334c-11.667 11.666-11.667 28 0 39.666l224 224c18.667 18.667 49 4.667 49-18.667v-168h886.669c13.995 0 27.998-14 27.998-28v-55.999c0-16.334-14.003-28-27.998-28h-886.669v-170.33c0-23.339-30.333-37.333-49-18.671l-224 224.001z" />
<glyph unicode="&#xea3a;" glyph-name="arrow-up2" d="M877.254 557.254l-320 320c-24.992 24.994-65.514 24.994-90.508 0l-320-320c-24.994-24.994-24.994-65.516 0-90.51 24.994-24.996 65.516-24.996 90.51 0l210.744 210.746v-613.49c0-35.346 28.654-64 64-64s64 28.654 64 64v613.49l210.746-210.746c12.496-12.496 28.876-18.744 45.254-18.744s32.758 6.248 45.254 18.746c24.994 24.994 24.994 65.514 0 90.508z" />
<glyph unicode="&#xea3c;" glyph-name="arrow-right2" d="M621.254 82.746l320 320c24.994 24.992 24.994 65.516 0 90.51l-320 320c-24.994 24.992-65.516 24.992-90.51 0-24.994-24.994-24.994-65.516 0-90.51l210.746-210.746h-613.49c-35.346 0-64-28.654-64-64s28.654-64 64-64h613.49l-210.746-210.746c-12.496-12.496-18.744-28.876-18.744-45.254s6.248-32.758 18.744-45.254c24.994-24.994 65.516-24.994 90.51 0z" />
<glyph unicode="&#xea3e;" glyph-name="arrow-down2" d="M877.254 338.746l-320-320c-24.992-24.994-65.514-24.994-90.508 0l-320 320c-24.994 24.994-24.994 65.516 0 90.51 24.994 24.996 65.516 24.996 90.51 0l210.744-210.746v613.49c0 35.346 28.654 64 64 64s64-28.654 64-64v-613.49l210.746 210.746c12.496 12.496 28.876 18.744 45.254 18.744s32.758-6.248 45.254-18.746c24.994-24.994 24.994-65.514 0-90.508z" />
<glyph unicode="&#xea40;" glyph-name="arrow-left2" d="M402.746 82.746l-320 320c-24.994 24.992-24.994 65.516 0 90.51l320 320c24.994 24.992 65.516 24.992 90.51 0 24.994-24.994 24.994-65.516 0-90.51l-210.746-210.746h613.49c35.346 0 64-28.654 64-64s-28.654-64-64-64h-613.49l210.746-210.746c12.496-12.496 18.744-28.876 18.744-45.254s-6.248-32.758-18.744-45.254c-24.994-24.994-65.516-24.994-90.51 0z" />
<glyph unicode="&#xea90;" glyph-name="facebook" d="M608 768h160v192h-160c-123.514 0-224-100.486-224-224v-96h-128v-192h128v-512h192v512h160l32 192h-192v96c0 17.346 14.654 32 32 32z" />
<glyph unicode="&#xea92;" glyph-name="instagram" d="M512 867.8c136.8 0 153-0.6 206.8-3 50-2.2 77-10.6 95-17.6 23.8-9.2 41-20.4 58.8-38.2 18-18 29-35 38.4-58.8 7-18 15.4-45.2 17.6-95 2.4-54 3-70.2 3-206.8s-0.6-153-3-206.8c-2.2-50-10.6-77-17.6-95-9.2-23.8-20.4-41-38.2-58.8-18-18-35-29-58.8-38.4-18-7-45.2-15.4-95-17.6-54-2.4-70.2-3-206.8-3s-153 0.6-206.8 3c-50 2.2-77 10.6-95 17.6-23.8 9.2-41 20.4-58.8 38.2-18 18-29 35-38.4 58.8-7 18-15.4 45.2-17.6 95-2.4 54-3 70.2-3 206.8s0.6 153 3 206.8c2.2 50 10.6 77 17.6 95 9.2 23.8 20.4 41 38.2 58.8 18 18 35 29 58.8 38.4 18 7 45.2 15.4 95 17.6 53.8 2.4 70 3 206.8 3zM512 960c-139 0-156.4-0.6-211-3-54.4-2.4-91.8-11.2-124.2-23.8-33.8-13.2-62.4-30.6-90.8-59.2-28.6-28.4-46-57-59.2-90.6-12.6-32.6-21.4-69.8-23.8-124.2-2.4-54.8-3-72.2-3-211.2s0.6-156.4 3-211c2.4-54.4 11.2-91.8 23.8-124.2 13.2-33.8 30.6-62.4 59.2-90.8 28.4-28.4 57-46 90.6-59 32.6-12.6 69.8-21.4 124.2-23.8 54.6-2.4 72-3 211-3s156.4 0.6 211 3c54.4 2.4 91.8 11.2 124.2 23.8 33.6 13 62.2 30.6 90.6 59s46 57 59 90.6c12.6 32.6 21.4 69.8 23.8 124.2 2.4 54.6 3 72 3 211s-0.6 156.4-3 211c-2.4 54.4-11.2 91.8-23.8 124.2-12.6 34-30 62.6-58.6 91-28.4 28.4-57 46-90.6 59-32.6 12.6-69.8 21.4-124.2 23.8-54.8 2.6-72.2 3.2-211.2 3.2v0zM512 711c-145.2 0-263-117.8-263-263s117.8-263 263-263 263 117.8 263 263c0 145.2-117.8 263-263 263zM512 277.4c-94.2 0-170.6 76.4-170.6 170.6s76.4 170.6 170.6 170.6c94.2 0 170.6-76.4 170.6-170.6s-76.4-170.6-170.6-170.6zM846.8 721.4c0-33.91-27.49-61.4-61.4-61.4s-61.4 27.49-61.4 61.4c0 33.91 27.49 61.4 61.4 61.4s61.4-27.49 61.4-61.4z" />
<glyph unicode="&#xea96;" glyph-name="twitter" d="M1024 733.6c-37.6-16.8-78.2-28-120.6-33 43.4 26 76.6 67.2 92.4 116.2-40.6-24-85.6-41.6-133.4-51-38.4 40.8-93 66.2-153.4 66.2-116 0-210-94-210-210 0-16.4 1.8-32.4 5.4-47.8-174.6 8.8-329.4 92.4-433 219.6-18-31-28.4-67.2-28.4-105.6 0-72.8 37-137.2 93.4-174.8-34.4 1-66.8 10.6-95.2 26.2 0-0.8 0-1.8 0-2.6 0-101.8 72.4-186.8 168.6-206-17.6-4.8-36.2-7.4-55.4-7.4-13.6 0-26.6 1.4-39.6 3.8 26.8-83.4 104.4-144.2 196.2-146-72-56.4-162.4-90-261-90-17 0-33.6 1-50.2 3 93.2-59.8 203.6-94.4 322.2-94.4 386.4 0 597.8 320.2 597.8 597.8 0 9.2-0.2 18.2-0.6 27.2 41 29.4 76.6 66.4 104.8 108.6z" />
<glyph unicode="&#xeaca;" glyph-name="linkedin2" d="M384 576h177.106v-90.782h2.532c24.64 44.194 84.958 90.782 174.842 90.782 186.946 0 221.52-116.376 221.52-267.734v-308.266h-184.61v273.278c0 65.184-1.334 149.026-96.028 149.026-96.148 0-110.82-70.986-110.82-144.292v-278.012h-184.542v576zM64 576h192v-576h-192v576zM256 736c0-53.019-42.981-96-96-96s-96 42.981-96 96c0 53.019 42.981 96 96 96s96-42.981 96-96z" />
</font>
</defs>
</svg>
